<svg xmlns="http://www.w3.org/2000/svg" width="20" height="18" viewBox="0 0 20 18">
  <g id="ic_pool_24px" transform="translate(-2 -3)">
    <path id="路径_100" data-name="路径 100" d="M22,21a3.825,3.825,0,0,1-2.18-.64A1.877,1.877,0,0,0,18.67,20a1.8,1.8,0,0,0-1.15.36,4.033,4.033,0,0,1-4.36,0A1.877,1.877,0,0,0,12.01,20a1.8,1.8,0,0,0-1.15.36A3.891,3.891,0,0,1,8.67,21a3.825,3.825,0,0,1-2.18-.64A1.816,1.816,0,0,0,5.34,20a1.816,1.816,0,0,0-1.15.36A3.891,3.891,0,0,1,2,21V19a1.8,1.8,0,0,0,1.15-.36A3.891,3.891,0,0,1,5.34,18a3.825,3.825,0,0,1,2.18.64A1.8,1.8,0,0,0,8.67,19a1.8,1.8,0,0,0,1.15-.36A3.891,3.891,0,0,1,12.01,18a3.825,3.825,0,0,1,2.18.64,1.877,1.877,0,0,0,1.15.36,1.816,1.816,0,0,0,1.15-.36,4.033,4.033,0,0,1,4.36,0A1.8,1.8,0,0,0,22,19v2Zm0-4.5a3.825,3.825,0,0,1-2.18-.64,1.877,1.877,0,0,0-1.15-.36,1.8,1.8,0,0,0-1.15.36,4.033,4.033,0,0,1-4.36,0,1.877,1.877,0,0,0-1.15-.36,1.8,1.8,0,0,0-1.15.36,3.825,3.825,0,0,1-2.18.64,3.825,3.825,0,0,1-2.18-.64,1.877,1.877,0,0,0-1.15-.36,1.816,1.816,0,0,0-1.15.36A3.958,3.958,0,0,1,2,16.5v-2a1.8,1.8,0,0,0,1.15-.36,3.825,3.825,0,0,1,2.18-.64,3.825,3.825,0,0,1,2.18.64,1.877,1.877,0,0,0,1.15.36,1.8,1.8,0,0,0,1.15-.36,3.825,3.825,0,0,1,2.18-.64,3.825,3.825,0,0,1,2.18.64,1.877,1.877,0,0,0,1.15.36,1.816,1.816,0,0,0,1.15-.36,4.033,4.033,0,0,1,4.36,0,1.877,1.877,0,0,0,1.15.36v2ZM8.67,12a1.8,1.8,0,0,0,1.15-.36A3.891,3.891,0,0,1,12.01,11a3.825,3.825,0,0,1,2.18.64,1.877,1.877,0,0,0,1.15.36,1.816,1.816,0,0,0,1.15-.36c.12-.07.26-.15.41-.23L10.48,5C8.93,3.45,7.5,2.99,5,3V5.5A4.921,4.921,0,0,1,9,7l1,1L6.75,11.25a5.472,5.472,0,0,1,.77.39A1.8,1.8,0,0,0,8.67,12Z"/>
    <circle id="椭圆_22" data-name="椭圆 22" cx="2.5" cy="2.5" r="2.5" transform="translate(14 3)"/>
  </g>
</svg>
