<svg xmlns="http://www.w3.org/2000/svg" width="385.582" height="445.492" viewBox="0 0 385.582 445.492">
  <defs>
    <style>
      .cls-1 {
        opacity: 0.6;
      }

      .cls-2 {
        fill: #f1f1f1;
      }

      .cls-3 {
        fill: #e5e5e5;
      }

      .cls-4 {
        fill: #e8e8e8;
      }

      .cls-5 {
        fill: #e4e4e4;
      }

      .cls-6 {
        fill: #fff;
      }

      .cls-7 {
        fill: #688739;
      }

      .cls-8 {
        fill: #dbdbdb;
      }
    </style>
  </defs>
  <g id="组_6" data-name="组 6" class="cls-1" transform="translate(-982.918 -1963.331)">
    <g id="中部全体" transform="translate(982.918 1963.331)">
      <g id="组_1" data-name="组 1" transform="translate(0 0)">
        <path id="路径_1" data-name="路径 1" class="cls-2" d="M1111.63,1217.553l2.159,2.574,2.531.442a19.42,19.42,0,0,1,2.816-1.98,35.1,35.1,0,0,1,4.612-1.254s-1.1-1.565-.491-2.694l-1.429-2.034-1.721,1.21s1.013,1.275.074,1.935a3.318,3.318,0,0,1-1.761.654l-2.5-1.4Z" transform="translate(-986.727 -1052.724)"/>
        <path id="路径_2" data-name="路径 2" class="cls-2" d="M1824.272,408.494c0-3.157.808-3.84,1.7-4.234s2.85-.6,3.707.784,2.246,2.863,1.794,3.882a7.387,7.387,0,0,1-2.643,2.559c-.6.307-1.222-.076-1.7,1.077a8.623,8.623,0,0,1-1.171,1.992s1.829,2.1,1.47,2.59-1.387,4.014-1.723,4.367-4.027.258-5.777,2.424c0,0,1.383,2.3,3.005,2.446s3.946-1.371,5.018-2.007a17.321,17.321,0,0,1,5.991-1.288c1.222.076,5.559-5.894,5.559-5.894l1.622.146s3.148-4.667,5.06-4.608a32.036,32.036,0,0,1,.588-4.153c.343-1.176,2.592-4.627,3.387-6.822s1.609-6.858,1.3-7.461-4.931,2.3-7.909,2.052-4.31-.478-3.942-4.944,3.736-8.821,4.455-9.794a3.067,3.067,0,0,0,.112-3c-.33-.469.632-1.263.992-1.749a7.79,7.79,0,0,0,.165-4.09c-.324-1.292.338-3.51.867-5.752a17.294,17.294,0,0,0-3.627.328c-1.159.347-3.885,4.951-3.954,5.35s-.245,2.978-.245,2.978-5.656,4.092-6.8,5.129-7.671,11.7-8.546,12.786-1.021,2.7-1.2,5.283-.16,6.424-.19,7.38S1824.319,408.228,1824.272,408.494Z" transform="translate(-1583.706 -340.033)"/>
        <path id="路径_3" data-name="路径 3" class="cls-2" d="M1706.319,274.272c-2.04-3.566-2.9-2.1-3.556-2.665a16.125,16.125,0,0,0-3.547-1.376,31.643,31.643,0,0,1-2.464-4.974c-.357-1.426.084-1.349.928-2.716a4.828,4.828,0,0,0,.3-3.432c-.044-.614,1.014-7.548,1.014-7.548l2.545-2.434s-1.093-11.1-.741-12.247,2.221-4.914,2.221-4.914a12.451,12.451,0,0,0,6.3,1.25l7.417-4.31s.525-1.272.877-2.422a21.914,21.914,0,0,1,1.817-3.47l-7.18-7.463a3.624,3.624,0,0,0-1.72.306c-.518.364-2.921.248-3.925-.079s-4.037-4.643-4.081-5.256.469-3.554-.061-4.858.77-4.41.112-4.979-6.538-1.6-7.688-1.948c-.964-.3-5.437-2.261-7.76-3.406-3.247,3.685-3.064,5.776-3.32,7.241a23.528,23.528,0,0,1-3.1,6.735c-1.507,2.345-2.033,10.079-1.739,12.327a9,9,0,0,1-.281,4.756,6.113,6.113,0,0,0,.132,3.18,3.138,3.138,0,0,1-1.131,2.548c-1.3,1.146.218,3.47.218,3.47-6.874,15-15.457,20.915-20.168,23.525a22.239,22.239,0,0,1-8.981,2.689c-.579.173-16.7,11.5-16.7,11.5-2.081,1.7-7.883,7.41-8.418,10.475s-3,14.029-4.784,17.973-3.4,6.133-5.931,8.026a6.881,6.881,0,0,0-2.726,4.6l-2.874.734s.92,1.808.514,2.561-5.487,10.986-5.487,10.986l-9.706,4.484s-.645,2.908-1.474,3.724-13.755,13.524-14.96,14.138a23.494,23.494,0,0,1-8.012,1.073,14.717,14.717,0,0,1-4.523-1.613l-6.957,8.4-2.045-.082c-1.548,1.789-8.021,5.052-11.394,7.072s-14.185,5.761-16.682,6.7a15.088,15.088,0,0,0-3.125,1.49c.714,1.13,2.09,3.211,2.766,3.575a20.766,20.766,0,0,0,4.151.952s.242,4.473.418,5.412,1.845,1.8,1.845,1.8a21.177,21.177,0,0,0-.228,3.255c.124.59-.322,1.194-.106,1.913s1.787,2.13,2,3.53c.2,1.324.448,1.831,1.016,2.074.033.014.055.038.09.05.643.226,2.623-1.36,3.7-2.989a75.774,75.774,0,0,1,5.445-7.115l-1.406-6.266s9.352,1.746,14.543,1.289l-1.146,7.866s4.6,2.28,5.257,3.076c.815-.767,1.4-2.823,1.589-3.244s1.626-.852,1.626-.852l16.065-2.876,1.73-7.31,4.291-.5,2.824-8.368,11.67-3.076s4.874,2.668,5.42,3.445,1.409,8.2,1.716,9.047a3.417,3.417,0,0,0,2.208,2.317c1.4.471,6.169,1.758,6.341,3.379s.655,3.409.352,4.492a21.408,21.408,0,0,1-2,3.628l2.506,1.914-.526,3.013,2.5.436.373-3.873,5.035,2.394,3.938-1.736a22.264,22.264,0,0,0,.341-2.819c-.044-.614-.024-3.336-.024-3.336l8.752-2.411-.528-4.788,1.887-3a10.082,10.082,0,0,0,2,1.561,5.294,5.294,0,0,0,1.055.033l-1.151-9.9s7.044-.437,7.37-1.44,2.476-2.9,2.476-2.9l.9-5.145,7.187,6.556.439,3.56,1.272.525a31.243,31.243,0,0,0,4.362,1.058c.007-.046.014-.1.022-.141a13.262,13.262,0,0,0,.443-3.407c-.115-1.08.968-4.678,1.1-5.413s-2.969-6.425-2.969-6.425l2.1-8.57-3.717-4.739-1.579,1.239-2.618-4.092s4.192-9.265,4.518-10.269a8.289,8.289,0,0,0,.194-2.844c-.019-.761.3-3.432-.094-3.8a13.481,13.481,0,0,0-2.224-1.145l1.192-5.093,15.91-1.768a44,44,0,0,1,2.554-6.825,15.184,15.184,0,0,0,3.183.858,8.716,8.716,0,0,0,2.749-.126c.958-.287,6.346.956,6.346.956a6.581,6.581,0,0,0,1.4-3.694l-3.6-7.142a5.616,5.616,0,0,0,.116-2.4,8.2,8.2,0,0,1,.763-3.5l5.154-3.493c.039-1.962,2.279-6.116,2.554-6.825s1.855-1.949,2.847-3.29,4.215-5.929,4.215-5.929c-.019-.034-.035-.053-.054-.086" transform="translate(-1333.841 -195.331)"/>
        <path id="路径_4" data-name="路径 4" class="cls-2" d="M1118.823,1398.232l.051.005,6.156-8.582a6.287,6.287,0,0,1,.549-4.448c.336-.623,1.522-4.165,2.315-6.753s2.485-2.52,4.383-2.984c0,0,.141-11.222.219-14.276a55.418,55.418,0,0,1,.657-6.282c-.568-.243-.817-.75-1.016-2.074-.21-1.4-1.782-2.811-2-3.53s.231-1.323.106-1.913a21.162,21.162,0,0,1,.228-3.255s-1.668-.859-1.845-1.8-.419-5.412-.419-5.412a20.761,20.761,0,0,1-4.151-.952c-.676-.364-2.052-2.445-2.766-3.575-.122.083-.178.13-.178.13-2.265-.4-2.914.178-3.743.994s-6.8,1.971-8.552,1.8-1.994,1.986-1.994,1.986-4.756-.281-5.424,2.76.5,1.871.049,5.225-1.4,2.5-1.543,4.124.571,3.806-2.239,4.963a3.971,3.971,0,0,0-2.7,3.648l-7.774-1.082s-3.326,1.753-5.191,1.428-4.466-.368-5.909-.757-10.221-6.726-11.39-7.891-1-2.92-.814-3.986,2.25-3.451,2.992-4.557a1.137,1.137,0,0,0-.387-1.715,5.429,5.429,0,0,0,.9-2.039c-.008-.311.254-.509.535-.645l-4.689-.634-9.907,6-2.273,18.234-4.772,3.257s2,3.529,2.322,4.268-.376,3.456-1.192,4.223-1.161,2.751-.607,4.779,2.5,5.208,2.288,6.42-1.963,11.245-1.595,13.7,2.3,5.059,1.852,5.663a14.077,14.077,0,0,1-1.89,1.715s1.173,3.045,1.038,3.816a8.805,8.805,0,0,0-.1,2.111,20.338,20.338,0,0,0,3.126-.561c.5-.254,4.922-6.071,4.922-6.071,1.011.063,7.467,2.78,7.352,3.441s-.612,5.46-.612,5.46,3.006-.952,3.582-1.647a39.468,39.468,0,0,0,3.643-7.2c.38-1.524,2.308-3.46,3.55-4.72s8.537-7.258,8.537-7.258a56.818,56.818,0,0,1,11.078-.339,91.442,91.442,0,0,1,12.227,3.5,70.339,70.339,0,0,0,9.03,2.939c.755.023,3.707.329,3.976.357" transform="translate(-931.662 -1153.692)"/>
        <path id="路径_5" data-name="路径 5" class="cls-2" d="M346.068,1947.766l2.815-4.019,1.057-3.451,5.266,1.071,3.831-3.724-.77-5.133,2.585-4.4,3.386,3.166,11.649-6,.6-4.289,4.134,1.479a7.346,7.346,0,0,0-.01-5.152c-1.111-2.314-2.9-5.959-2.3-7.671s2.916-2.823,2.916-2.823l9.028,5.027c.932-1.582,1.4-4.46,1.757-5.417.432-1.174,1.926-6.48,1.926-6.48l5.6-2.772c2.621,1.253,10.851,2.916,10.851,2.916l.385-2.2s23.526-3.96,24.044-4.324a51.269,51.269,0,0,0,3.685-5.492c.485-.824-.023-1.822-.382-3.02s-9.183-11.827-9.183-11.827-.107-5.245.742-5.551a4.8,4.8,0,0,0,2.283-2.669c0-.382-.694-1.023-1.31-1.518a1.77,1.77,0,0,1-.5.179c-1.879.354-4.31.611-4.886,1.306s-2.331,1.638-2.781.31-.665-2.047-1.288-2.383-7.681-6.112-7.681-6.112a21.735,21.735,0,0,1-2.891.291c-1.251.009-3.36-.927-4.084-.031s-2.485,2.52-3.563,1.537-3.306-3.19-4.207-3.234a27.226,27.226,0,0,0-3.279.564c-1.16.138-2.161-1.286-2.041-2.628a12.168,12.168,0,0,0-1.176-4.977c-.455-.647-2.5-3.276-2.994-3.022-.463.236-2.862-.2-4.492-3.3-.052.034-.113.082-.158.108-.916.527-5.53,4.938-6,5.268s-4.333-.344-4.333-.344a10.489,10.489,0,0,0,.941,4.832c-1.675.943-2.939,3.468-3.241,5.2s-3.189,4.111-4.487,5.258-1.08,4.616-2.049,6.232-1.55,4.946-2.112,5.809-2.1,1.007-2.487,2.449,3.246,5.783,3.246,5.783-.727,4.953.552,6.274c3.255,1.8,7.967,7.843,9.187,11.076s-.928,10.821-.928,10.821l-3.083,1.933a19.071,19.071,0,0,0-1.633-1.658c-.95-.852.818-2.329.818-2.329a33.959,33.959,0,0,1-2.5-7.712s-1.455,1.256-2.394,1.916a9.941,9.941,0,0,0-2.829,3.625c-.14.8,1.673,2.214,1.673,2.214l.387,1.715-1.1.77c-1.1.77.757,2.74,1.244,3.1s.757,2.74-.112,3-7.723.986-7.723.986l-6.006-2.558-1.635,1.5,5.177,3.375-1.914,3.1-2.016-1.038-1.3,1.146,2.542,1.954-2.277,1.25-2.912-2.979a15.517,15.517,0,0,1-1.6,2.878c-1.1,1.592.525,4.073.525,4.073-1.692.254-5.8,2.557-7.666,2.231a11.533,11.533,0,0,0-3.713.039c.7-.84,1.277-4.17,1.277-4.17l2.2-.028-.161-2.225a16.676,16.676,0,0,0-2.694.491c-1.159.347-2.55,2.026-3.675,3.752s-4.439,1.834-4.439,1.834a5.968,5.968,0,0,1-2.368-1.375c-.55-.782,1.034-4.35.571-4.843s-2.375-.552-2.375-.552a3.142,3.142,0,0,1-.378,2.954,1.12,1.12,0,0,1-1.639-.835c-.434-1.448,1.264-2.525,1.264-2.525l-1.266-.7a7.673,7.673,0,0,1-1.672,3.059c-1.087,1.022-.532,2.179.2,2.308a2.35,2.35,0,0,1,1.75,2.123c-.033,1.055-1.593,3.054-1.082,3.6s5.948,4.976,5.948,4.976-.436,2.5.534,3.88c0,0,7.746.746,9.286,1.469s4.94,2.074,5.649,2.349,2.34-1.258,3.075-1.129,2.966.366,2.966.366l.21-.3" transform="translate(-316.918 -1583.192)"/>
        <path id="路径_6" data-name="路径 6" class="cls-2" d="M797.793,1846.135c.56.006,1.937.011,2.785-.079,1.08-.114,1.19-1.61,1.19-1.61s3.8.813,4.167.424.359-2.058.359-2.058l2.5.436a29.2,29.2,0,0,0,1.328,2.807c.364.518,5.537,7.328,6.394,7.629a8.785,8.785,0,0,0,2.058.359l.359-2.058L819.9,1853a22.259,22.259,0,0,1,1.42-4.95c.821-1.447.276-4.837.262-5.407s2.04-4.529,2.674-5.554,3.844-7.054,4.061-8.948c0,0,1.653.289,2.516.553a1.948,1.948,0,0,1,1.15,1.223s9.454-2.1,10.51-2.937,2.8-2.352,2.8-2.352l.442-2.536s2.147.716,2.522-.128l-.371,2.775c3.8,1.685,5.161,3.627,5.831,4.994s3.362,5.472,3.362,5.472,4.084.031,6.044,1.169a10.269,10.269,0,0,1,3.248,3.521s5.034-1.507,6.6-2.029a4.143,4.143,0,0,0,2.226-2.338s3.23,1.018,5.89,2.051,3.8,2.936,5.07,3.5a13.46,13.46,0,0,0,3.509.726l6.452-6.372a14.291,14.291,0,0,0,3.09.023,9.163,9.163,0,0,0,.027-.956,45.843,45.843,0,0,1,.281-5.518c.159-1.563,1.566-5.066,1.859-7.4s.505-3.547.505-3.547l2.84-3.253-1.64-6.875-5.936,1.463s-2.589-7.95-4.26-10.741l1.479-3.264-8.88-12.91s-1.557-.84-2.2-1.066-6.9-2.794-6.9-2.794a3.821,3.821,0,0,0,.059-2.943l7.388-8.481a11.82,11.82,0,0,1,4.5,1.58l11.833-19.633-5.007-4.509,3.323-8.622-2.079-2.408s5.786-8.419,5.844-8.75,1.273-5.344.339-5.848a50.719,50.719,0,0,1-4.562-2.5,4.825,4.825,0,0,1-.658-2.383c-.269-.028-3.221-.333-3.976-.357a70.374,70.374,0,0,1-9.03-2.939,91.455,91.455,0,0,0-12.227-3.5,56.819,56.819,0,0,0-11.079.338s-7.3,6-8.537,7.258-3.171,3.2-3.55,4.72a39.479,39.479,0,0,1-3.643,7.2c-.576.695-3.582,1.647-3.582,1.647s.5-4.8.612-5.46-6.34-3.379-7.351-3.442c0,0-4.423,5.817-4.922,6.071a20.362,20.362,0,0,1-3.126.561,2.077,2.077,0,0,0,.335,1.111c.565.667,1.839,2.48,1.839,2.48s2.963-.051,3.173,1.349-4.712,7.471-5.513,8.808a4.25,4.25,0,0,0-.505,3.547,3.325,3.325,0,0,1-.8,3.269c-.827.668-.325,2.469-1.548,3.1.616.495,1.313,1.136,1.311,1.518a4.8,4.8,0,0,1-2.283,2.669c-.849.306-.742,5.551-.742,5.551s8.824,10.628,9.183,11.827.866,2.2.382,3.02a51.284,51.284,0,0,1-3.685,5.492c-.518.364-24.044,4.324-24.044,4.324l-.385,2.2s-8.23-1.663-10.851-2.916l-5.6,2.772s-1.494,5.306-1.926,6.48c-.352.957-.825,3.835-1.757,5.417l.084.047s.145,3.509,1.123,3.983,2.8-.42,2.8-.42-.151,6.941.775,7.709a21.56,21.56,0,0,0,2.441,1.638l1.465-2.319s2.037,3.082,2.375,3.747,1.881,7.447,2.187,9.167a35.524,35.524,0,0,0,1.991,5.952l-2.321,2.019s-1.026,5.88-.772,7.893a27.278,27.278,0,0,1-.636,6.251l2.485,2.251.258,0" transform="translate(-710.202 -1469.552)"/>
        <path id="路径_7" data-name="路径 7" class="cls-2" d="M1928.247,2033.717c-.816.373-4.371,1.949-5.083,1.423-.805-.595-2.581-2.571-3.955-2.508s-3.925-.079-3.925-.079l-2.375-3.747-4.48-1.237.033-.145c-1.052.451-2.323.992-2.665,1.124-.609.235-.942,2.79-1.459,3.154s-6.132.634-6.132.634l-.079-4.1-9.065-.787-1.823,2.636-3.518-1.977,1.032-2.66-7.884-3.648-7.51,12.436-3.815-1.575-4.8,9.954,4.59,3.641-4.834,4.269s1.521,5.6,3.485,8.674c.063.1.125.217.188.321a54.613,54.613,0,0,1,4.044,9.279,17.424,17.424,0,0,1,.251,5.724,4.4,4.4,0,0,0,.7,2.508s-.479.143-1.281,1.48.833,1.736,1.178,2.364-.031,4.084-.218,4.506-1.435,2.362-1.459,3.153.846,4.919.846,4.919a29.087,29.087,0,0,0,4.069,2.074c.46-.033,2.039-1.917,2.039-1.917s3.925,1.594,4.581,2.39,2.421,8.261,2.818,9.239a11.845,11.845,0,0,0,3.339,3.65c1.025.633,4.611.918,5.311.813s3.76-3.32,3.9-4.091-1.486-7.758-1.73-9.618.054-2.262.53-4.338-.266-3.682-.112-4.564.453-3.9.453-3.9l4.292-3.113s2.16,3.9,3.056,4.623c1.755-.943,5.153-.237,5.153-.237s.153,1.731.147,2.412,1.112,1.443,1.572,1.41,16.6-2.67,17.1-2.924c.4-.205,2.051-1.6,3.088-2.475.269-3.474,3.11-6.883,4.474-7.225,1.426-.357,5.383-1.333,6.348-2.527s5.774-4.445,5.9-5.18,1.229-3.572,1.357-4.307-.094-3.8-.7-4.667.067-5.593.067-5.593l-.033-.036a25.778,25.778,0,0,0-2.7-2.561c-1.073-.793-4.947-1.166-4.947-1.166a26.3,26.3,0,0,1-2.312-2.373,64.742,64.742,0,0,1-4.156-8.3,33.541,33.541,0,0,0-2.707-5.319Z" transform="translate(-1617.897 -1734.736)"/>
        <path id="路径_8" data-name="路径 8" class="cls-2" d="M1422.137,1484.21l3.755-.955.611-2.847,21.705-13.707,1.479-3.264-2.9-6.186,3.467-.986.3-3.015s-2.123-1.507-2.079-2.408-.114-1.951-.026-3.753,2.26-4.491,2.26-4.491l1.629,1.08.635-3.638a7.472,7.472,0,0,1,1.413-3.442c-.063-.1-.125-.221-.188-.321-1.963-3.069-3.485-8.674-3.485-8.674l4.834-4.269-4.59-3.641,4.8-9.954,3.815,1.575,7.51-12.436,7.884,3.648-1.032,2.66,3.518,1.977,1.823-2.635,9.065.787.079,4.1s5.613-.27,6.132-.634.85-2.919,1.459-3.154c.343-.132,1.613-.673,2.666-1.124l.6-2.623a4.193,4.193,0,0,0-1.379-2.512c-1.195-.966-.707-3.759-.707-3.759l-.067-.012a8.31,8.31,0,0,1-2.8-.942c-.658-.569-4.345-2.879-4.345-2.879s.847-4.851.63-5.343c-.94-2.133.686-3.061.175-3.6s-5.75-5.245-5.75-5.245l4.482-2.247a9.73,9.73,0,0,1,.1-3.164c-1.066-1.7-3.223-8.439-3.223-8.439l4.949-2.317c-1.015-1.995-2.735-11.232-2.735-11.232s-5.682-1.294-6.442-1.276a42.4,42.4,0,0,0-5.364,2.093,5.1,5.1,0,0,1-1.566-.576c-.684-.422-7.637-2.242-7.509-2.977s-.094-3.8.067-5.593.874-8.481.874-8.481l4.824-8.549a24.361,24.361,0,0,1,4.655-2.369c-.875-1.062-.369-3.094-.292-3.535s3.733-.56,4.373-.752,9.673-4.219,9.673-4.219l.526-3.013-2.506-1.915a21.4,21.4,0,0,0,2-3.628c.3-1.083-.18-2.872-.352-4.492s-4.946-2.908-6.34-3.379a3.417,3.417,0,0,1-2.208-2.317c-.306-.849-1.17-8.27-1.716-9.047s-5.42-3.445-5.42-3.445l-11.67,3.076-2.824,8.368-4.291.5-1.73,7.31-16.066,2.876s-1.439.431-1.626.853-.773,2.478-1.589,3.244c-.656-.8-5.257-3.076-5.257-3.076l1.146-7.866c-5.192.457-14.543-1.289-14.543-1.289l1.406,6.267a75.8,75.8,0,0,0-5.445,7.115c-1.079,1.629-3.06,3.215-3.7,2.989-.035-.012-.057-.036-.09-.05a55.387,55.387,0,0,0-.656,6.282c-.079,3.053-.219,14.276-.219,14.276-1.9.464-3.591.4-4.383,2.984s-1.979,6.13-2.315,6.753a6.287,6.287,0,0,0-.549,4.448l-6.156,8.582-.051-.005a4.827,4.827,0,0,0,.658,2.383,50.672,50.672,0,0,0,4.562,2.5c.935.5-.281,5.518-.339,5.848s-5.844,8.75-5.844,8.75l2.079,2.408-3.323,8.622,5.007,4.509-11.833,19.633a11.819,11.819,0,0,0-4.5-1.58l-7.387,8.48a3.821,3.821,0,0,1-.059,2.943s6.254,2.568,6.9,2.794,2.2,1.065,2.2,1.065l8.88,12.91-1.479,3.264c1.671,2.791,4.26,10.741,4.26,10.741l5.936-1.463,1.64,6.875-2.84,3.253s-.211,1.213-.505,3.547-1.7,5.838-1.859,7.4a45.841,45.841,0,0,0-.282,5.517,9.068,9.068,0,0,1-.027.956,27.372,27.372,0,0,1-.483,3.272,14.6,14.6,0,0,0,2.208,2.317c1.006.743.338,3.921.338,3.921s5.566-1.3,6.195-1.645,3.626-2.548,3.626-2.548a19.245,19.245,0,0,1,3.762,1.225,23.558,23.558,0,0,0,3.853,1.354l5.518-1.4" transform="translate(-1208.114 -1111.819)"/>
        <path id="路径_9" data-name="路径 9" class="cls-2" d="M1622.272,2309.7c-.338-.665-4.5-5.481-4.5-5.481s.264-2.377.373-3.873.774-1.834,1.421-2.933a7.027,7.027,0,0,0,.354-4.634,70.422,70.422,0,0,1-1.025-7.147l-6.967,0c0-.156.038-.312.05-.468-1.038.875-2.685,2.27-3.089,2.475-.5.254-16.636,2.891-17.1,2.924s-1.577-.729-1.572-1.41-.147-2.412-.147-2.412-3.4-.707-5.153.237c-.9-.724-3.056-4.623-3.056-4.623l-4.292,3.113s-.3,3.015-.453,3.9.588,2.489.112,4.564-.773,2.478-.53,4.338,1.864,8.846,1.73,9.617-3.2,3.987-3.895,4.092-4.286-.18-5.311-.813a11.838,11.838,0,0,1-3.339-3.65c-.4-.978-2.162-8.443-2.818-9.24s-4.581-2.39-4.581-2.39-1.579,1.883-2.039,1.917a29.073,29.073,0,0,1-4.069-2.074s-.87-4.128-.846-4.919,1.272-2.732,1.459-3.153.563-3.878.219-4.506-1.979-1.027-1.178-2.364,1.281-1.48,1.281-1.48a4.4,4.4,0,0,1-.7-2.508,17.414,17.414,0,0,0-.251-5.723,54.593,54.593,0,0,0-4.044-9.279,7.473,7.473,0,0,0-1.413,3.442l-.635,3.638-1.629-1.079s-2.173,2.688-2.26,4.49.07,2.852.027,3.753,2.079,2.408,2.079,2.408l-.3,3.015-3.467.986,2.9,6.185-1.479,3.264-21.705,13.707-.611,2.847-3.755.955-2.292,3.1c1.572,1.41,2.395,4.508,1.463,5.936s-1.91,4.438-2.726,5.2-7.071,7.968-7.071,7.968.895,3.337-.055,4.875a9.472,9.472,0,0,1-3.424,2.7s-1.207,6.265-2.133,7.012a9.58,9.58,0,0,1-3.375,1.115l-.208,3.145-5.4.989s-3.612,3.118-4.019,3.5-1.207,6.264-1.063,6.744,1.876,4.872,2.111,5.481a8.292,8.292,0,0,1-.331,2.76c2.426-.48,6.034-.732,13.018-.03a118.616,118.616,0,0,1,15.431,2.83s7.261-4.636,19.4-1.831,14.826,6.294,15.585,5.878a5.126,5.126,0,0,1,2.248-.294c-5.209-7.91-1.228-11.06.976-14.244a11.7,11.7,0,0,1,4.99-4.209,8.363,8.363,0,0,1-.028-2.2c.163-.932,2.806-3.491,3.079-4.267a5.84,5.84,0,0,0-.7-3.83c-.66-.939,2.322-7.008,2.322-7.008s4.051-3.549,4.677-3.988,2.138-.451,3.407-.641,4.363-.612,5.76-3.113a17.573,17.573,0,0,1-1.869-2.66c-.394-.892.135-3.134.9-4.373s3.17-1.644,3.17-1.644a3.5,3.5,0,0,1-.038-3.713c1.015-1.882,4.2-2.014,6.686-2.128s5.088-2.407,6.027-3.067,8.99,1.981,10.432,2.37,6.873,5.455,7.823,6.307a2.249,2.249,0,0,1,.311,2.937c-.539.73-1.339.59-2.514.248a4.742,4.742,0,0,0-3.227.4c-.893.394-2.994-.934-3.73-.651s-1.619,5.346-1.562,6.592,1.718,5.1,1.642,6.327-2.354,2.472-2.354,2.472l-.668,3.041,2.688.332a17.521,17.521,0,0,0-1.554,2.612c-.655,1.4-.1,4.513.275,4.716s.2,2.781.2,2.781,1.309.366.99,1.408a5.175,5.175,0,0,1-1.907,2.275c-.469.33-1.057,4.483-1.057,4.483l2.468.019,1.8,3.06-1.484,2.212,7.418,3.9,5.494-3.16.842-2.462,2.753-2.4.364,1.848,2.375.552.418-2.4a9.323,9.323,0,0,1-.8-2.475,9.7,9.7,0,0,1,1.579-5.9c1.212-1.436,4.149-1.747,4.149-1.747.053-1.089.992-1.749,1-2.571s.742-1.106,1.461-2.079-.009-4.669-.009-4.669,4.4-2.39,4.734-2.743,1.562-6.592,1.562-6.592c-.73-.539-.937-2.5-.937-2.5-1.442-.389-4.564-2.169-5.218-3.93,0,0,1.745-1.343,1.351-2.236a9.823,9.823,0,0,1-.288-3.07l-2.282-1.085s.511-2.931.807-3.841,1.579-5.9,1.916-6.255a.95.95,0,0,1,.086-.062l-6.749-1.178C1622.6,2312.182,1622.611,2310.367,1622.272,2309.7Z" transform="translate(-1302.052 -1937.011)"/>
        <path id="路径_10" data-name="路径 10" class="cls-2" d="M1091.035,2515.344c-.234-.609-1.967-5-2.11-5.481s.655-6.361,1.063-6.744,4.02-3.5,4.02-3.5l5.4-.989.208-3.145a9.578,9.578,0,0,0,3.376-1.115c.926-.748,2.133-7.012,2.133-7.012a9.468,9.468,0,0,0,3.424-2.7c.95-1.538.056-4.875.056-4.875s6.255-7.2,7.071-7.968,1.8-3.776,2.726-5.2.108-4.526-1.463-5.936l2.292-3.1-5.518,1.4a23.581,23.581,0,0,1-3.854-1.354,19.211,19.211,0,0,0-3.762-1.225s-3,2.2-3.626,2.548-6.195,1.645-6.195,1.645.668-3.178-.338-3.922a14.582,14.582,0,0,1-2.209-2.317,27.445,27.445,0,0,0,.484-3.272,14.292,14.292,0,0,1-3.09-.023l-6.451,6.372a13.477,13.477,0,0,1-3.509-.726c-1.265-.562-2.41-2.466-5.07-3.5s-5.891-2.05-5.891-2.05a4.142,4.142,0,0,1-2.226,2.338c-1.568.522-6.6,2.029-6.6,2.029a10.27,10.27,0,0,0-3.248-3.521c-1.96-1.137-6.044-1.168-6.044-1.168s-2.692-4.105-3.362-5.472-2.035-3.308-5.831-4.994l.371-2.775c-.375.844-2.522.128-2.522.128l-.442,2.535s-1.741,1.514-2.8,2.353-10.51,2.937-10.51,2.937a1.949,1.949,0,0,0-1.15-1.223c-.863-.264-2.516-.552-2.516-.552-.217,1.893-3.428,7.922-4.061,8.948s-2.687,4.984-2.673,5.554.559,3.96-.262,5.407a22.26,22.26,0,0,0-1.42,4.95c1.335,1.392,3.653,3.806,4.286,4.449a20.568,20.568,0,0,0,4.025,2.974,17.734,17.734,0,0,0,.21,5.275l2.9,1.958,3.984-6.306s3.906-1.927,4.618-2.077,1.036,1.142.967,1.542-2.5,1.76-2.5,1.76-.372,2.132-.691,3.174a32.356,32.356,0,0,1-1.5,4.68c-.609,1.129-1.446,5.926-1.116,6.395s.345,4.316.345,4.316,3.6,2.962,3.773,6.7a19.158,19.158,0,0,1-1.771,7.791s3.752,3.675,5.147,4.33,4.187,1.967,6.725,1.586c.656-1.4.489-2.8-1.7-4.416a7.466,7.466,0,0,1-3.016-3.958c-.59-1.338-.212-4.293.184-6.558s.964-3.95,2.639-4.894c-.144-1.535.934-2.994,1.687-2.588s.155,3.047.155,3.047a5.122,5.122,0,0,0-1.188,1.3,11.631,11.631,0,0,0-.761,3.574c3.43-.774,5.367,4.644,5.367,4.644a11.8,11.8,0,0,0,1.593,1.1c.753.406,2.208-.85,2.677-1.18s4.843.571,5.422.4,2.984-.578,2.984-.578l1.586,1.924,1.222.076.535-3.064c.372-2.132,3.929-2.06,6.211-.975.765-1.239,2.544-1.2,3.343-1.064s2.842,3.379,2.842,3.379a6.855,6.855,0,0,0-1.385.856c-.336.353-.072,3.557.438,3.783a13.329,13.329,0,0,0,1.976.483l-.123,1.489-2.734-.065.728,3.7-1.762.654.125-4.646-1-.586-1.745,1.343a2.1,2.1,0,0,1,.011,1.512c-.3.909-2.967,1.267-2.967,1.267l-.569,1.686-1.02-.452-3.339,3.4-2.085-.639-2.271.428c1.332.232.131,3.18.131,3.18-2-.348-3.531-3.362-3.531-3.362a3.733,3.733,0,0,0-1.912-.059c-.736.284-3.447,8.734-3.447,8.734,1.715-.387,8.685-1.779,10.637-1.164,2.028-.607,15.587-5.929,17.239-6.739a121.42,121.42,0,0,1,12.77-3.949c.143-.032.3-.06.456-.089A8.284,8.284,0,0,0,1091.035,2515.344Z" transform="translate(-905.204 -2085.183)"/>
        <path id="路径_11" data-name="路径 11" class="cls-2" d="M794.6,1118.36c1.223-.629.721-2.43,1.548-3.1a3.326,3.326,0,0,0,.8-3.269,4.249,4.249,0,0,1,.505-3.547c.8-1.337,5.724-7.408,5.513-8.808s-3.172-1.349-3.172-1.349-1.274-1.813-1.839-2.479a2.08,2.08,0,0,1-.335-1.111,8.8,8.8,0,0,1,.1-2.111c.135-.772-1.038-3.817-1.038-3.817a14.1,14.1,0,0,0,1.89-1.715c.446-.6-1.484-3.213-1.852-5.663s1.383-12.482,1.595-13.695-1.733-4.392-2.288-6.42-.208-4.012.607-4.779,1.517-3.484,1.192-4.223-2.322-4.268-2.322-4.268l4.772-3.257,2.273-18.234,9.908-6,4.689.634a3.189,3.189,0,0,1,.717-.235l-.5-16.012a16.936,16.936,0,0,0-3.03.844c-.47.33-.279,1.6-.8,3.018s-1.954,2.542-2.886,2.379-1.489-.122-1.922-1.571a3.136,3.136,0,0,0-3.075-2.047c-.979.1-1.838,1.876-1.838,1.876l-3.441-.738.292-3.244,2.358-.137.268-3.111L801.9,1000.7a5.263,5.263,0,0,0,1.1-1.593c.273-.776,1.148-1.859,2.03-3.764a2.785,2.785,0,0,0-.155-3.047l2.927-1.823,2.415,1.108s-.07.4-.736.283-2.237,1.806-1.351,2.235a10.74,10.74,0,0,0,3.534.2,3.288,3.288,0,0,0,1.7,2.081c1.286.5,1.965-1.03,2.307-2.206s2.231-.984,2.394-1.916a4.707,4.707,0,0,1,1.288-2.658c.626-.44.911-2.861.941-3.817s2.527-1.893,3.882-1.794,2.654-1.047,3.61-1.017,2.172.928,5.266.507c.459-1.842,1.281-1.836,2.053-3.9s-1.214-4.056-2.094-5.308.7-4.819,1.376-5.526a10.934,10.934,0,0,1,3.686-2.24c1-.237,1.7,1.258,1.7,1.258s2.584-.647,2.544-1.2,1.414-1.812,1.414-1.812a5.806,5.806,0,0,1-1.279-1.322c-.9-1.119.135-3.134.135-3.134a6.024,6.024,0,0,1-1.616-.969,6.286,6.286,0,0,0-4.836-1.393,16.791,16.791,0,0,0-6.756,2.528,7.069,7.069,0,0,1-4.206.5,14.763,14.763,0,0,0-5.308,2.094c-1.854,1.187-1.507,2.345-2.313,3.028a65.757,65.757,0,0,1-7.168,4.1c-1.339.59-3.975,2.326-5.158,2.807s-5.955-.49-5.955-.49c-1.658,1.633-7.591,4.166-10.089,5.1,1.736,2.637-.2,2.711-1.433,4.28s.085,3.447.049,5.225a3.092,3.092,0,0,1-1.757,2.988c-.916.527.161,2.225.161,2.225a11.984,11.984,0,0,1-1.907,2.276c-1.142,1.036-1.567,4.257-.953,5.462a4.86,4.86,0,0,1,.178,2.914,8.879,8.879,0,0,1,1.246-.057c.823.006.522-1.419,1.195-2.126s1.592,1.1,1.7,2.081,1.163,1.988,1.18,2.677-1.011,4.217-.97,4.773,1.51,3.147,1.967,4.462a8.061,8.061,0,0,0,2.4,2.753l.224,2.648a3.816,3.816,0,0,1-.714,3.307c-1.258,1.7.7,3.83.7,3.83s-.245,2.977-1.634,10.148-8.468,17.056-14.638,27.236-18.233,23.451-19.219,24.377-2.851.6-3.766,1.127-1.021,2.7-1.271,3.348a13.8,13.8,0,0,1-3.18,3.29c1.63,3.1,4.029,3.538,4.492,3.3.5-.254,2.539,2.374,2.994,3.022a12.164,12.164,0,0,1,1.176,4.977c-.121,1.342.88,2.767,2.041,2.628a27.221,27.221,0,0,1,3.279-.564c.9.044,3.129,2.25,4.207,3.233s2.838-.641,3.563-1.537,2.833.04,4.084.031a21.706,21.706,0,0,0,2.891-.291s7.058,5.776,7.681,6.112.838,1.055,1.288,2.383,2.205.385,2.781-.31,3.006-.952,4.886-1.306A1.771,1.771,0,0,0,794.6,1118.36Z" transform="translate(-680.87 -838.057)"/>
      </g>
    </g>
    <g id="南信" transform="translate(1172.147 2249.837)">
      <path id="路径_12" data-name="路径 12" class="cls-3" d="M1557.85,2018.8l-.17-.528-.389.107-.11.908s-2,2.335-2.1,2.319-.714-.055-.714-.055l-.381.088-.17.414.137.319.411.292-.113.5-1.736,1.527s-.808.167-1.361,1.516c0,0-1.442,2.185-2.088,2.28s-.412.9-.447.946a6.287,6.287,0,0,1-.929,1.018c-.525.454-1.02,1.021-.97,1.171a1.444,1.444,0,0,0,.439.929,1.841,1.841,0,0,0,1.307.332c.493-.015.8.566.8.566a2.679,2.679,0,0,1,.487,1.013c.021.39-.615.818-.731,1.212a8.679,8.679,0,0,0-.058,1.734c.01.01.472.205.52.575s.569,1.925.054,2.435a4.045,4.045,0,0,1-.892.7s.612,1.238.3,1.7a17.924,17.924,0,0,1-1.517,2.1c-.549.578-.6.818-.423,1.126s.412.568-.051.992-1.906,1.371-1.906,1.371a1.278,1.278,0,0,1,.314.743,16.382,16.382,0,0,0,.252,1.715,4.575,4.575,0,0,1-.524,2.643,1.12,1.12,0,0,0,.331,1.608c.807.423,1.567,1.076,1.187,1.5a2.046,2.046,0,0,0-.489,1.671c.126.539-.9,1.569-.911,1.912s-.09,1.773-.09,1.773.3.3-.781,1.461-1.631,2.295-2.636,2.592a2.961,2.961,0,0,0-1.861,1.017c-.754.755-1.6.5-2.241,1.1s-1.058.964-.931,1.246.569.707.4.931a11.183,11.183,0,0,1-1.912,1.733c-.85.587-1.13.709-.84,1.253s.57.716-.113,1.412-1.166,1.948-1.465,2.024a21.939,21.939,0,0,0-2.535.143c-.187.167-.115,1.345-.317,1.618s.137.614-.226.673-.981-.113-1.231.084-.249.826-.2,1.834a5.152,5.152,0,0,0,.376,1.569c.036.3.372.846-.492,1.252s-1.348.154-2,1.106-1.153.853-.468,1.156.9.345,1.209.716.8.623.8.795-.075.868.134,1.109a2.185,2.185,0,0,1,.647.885c.369.741.941.9.872,1.04a3.2,3.2,0,0,1-1.747,1.146,8.033,8.033,0,0,1-3.228.192c-.57-.135-1.045-.121-.849.025s.646.228,1.075.5.947.2,1.09.71.213,2.221.289,2.342a7.184,7.184,0,0,1,.464,2.366,17.044,17.044,0,0,1-1.809,2.139c-.168.2-1.685.165-2.138.587s-.865,1.912-.364,2.21,1.107.357.95.6a13.544,13.544,0,0,0-1.132,1.871c-.473.975-1.146,1.4-.979,1.781a3.45,3.45,0,0,0,.937,1.4,14.851,14.851,0,0,1,1.694,1.672c.1.14.024,2.046.182,2.118a3.04,3.04,0,0,0,1.625-.325c.43-.289.8-.833,1.387-.975a17.984,17.984,0,0,1,2.64-.307c.1.044.253.211.415.14a1.039,1.039,0,0,0,.648-.629,4.159,4.159,0,0,1,.447-.956c.306-.476.18-.71,1.039-.688a2.291,2.291,0,0,0,1.442-.338c.469-.214.915-.275.984-.1s-.184.548.548.611,2.077-.195,2.665-.089a2.129,2.129,0,0,1,1.145.708,4.14,4.14,0,0,0,2.2.287c.746-.089,1.784-.521,1.852-.389s.017,1.181.387,1.636.556.878,1.322.522,1.427-1.147,2.462-1.368,2.539-.019,2.636-.136-.241-.745.453-.756,1.885-.18,2.243-.115.216.508.5.252.467-.88.735-1.1.019-1.2.2-1.663a1.856,1.856,0,0,1,.778-.861c.224-.15.649-.6,1.037-.459s1.059-.032,1.349.207.287.439.5.157.552-2.006.838-2.214a2.744,2.744,0,0,1,1.448-.462c.368.065.677-.268.854-.463a1.987,1.987,0,0,1,1.308-.258c.431.063,1.688-1.269,1.688-1.269s.737-1.012,1.468-1.024a10.555,10.555,0,0,0,2.2-.084,6.006,6.006,0,0,0,1.376-1.945c.128-.623.043-1.02.812-1.271s1.384-1.384,1.569-1.6a1.492,1.492,0,0,1,1.307-.287c.4.169.514.375,1.015.636s.63.3.947-.39a1.934,1.934,0,0,1,1.223-1.265,7.179,7.179,0,0,1,2.442-1.111c.993-.1,1.406-.318,1.642-1.306s.648-.952.408-1.335a2.245,2.245,0,0,0-1.3-.837.659.659,0,0,1-.417-1.1c.349-.534-.057-.693-.872-1.04s-.9-.306-.9-1.011-.235-2.668.014-2.875a1.3,1.3,0,0,1,1.3-.163c.427.244.588.106,1.055-.146a2.237,2.237,0,0,1,1.121-.4c.275.039-.05-1.36.175-1.786a3.361,3.361,0,0,0,.48-1.337c-.07-.188-1.249-.515-1.516-.6s-.936-.125-.621-.6.681-1.058.594-1.2-.54-.336-.689-.446-.46-.434-.1-.711.2-.634.845-1.368,1.125-.88.523-1.148-1.079-.329-1.015-.646a1.617,1.617,0,0,1,.314-.809c.3-.523.353-1.647,1.035-2.039s1.127-1.11,1.408-.861.358.342.734.7.524.727.672.465.236-.664.5-1.176.087-1.078.6-1.808.629-.333.475-.928-.417-.492-.377-.989a8.184,8.184,0,0,1,.02-.857c.064-.3,1.371-1.184,1.439-1.348a.849.849,0,0,0-.325-1.1c-.588-.411-.578-.982-1.3-1.332s-.9,0-.892-.8.023-1.353.013-2.019a2.893,2.893,0,0,0-1.036-1.645c-.263-.23-.533-.422-.222-.993a9.1,9.1,0,0,1,2.144-2.53c1.115-.909,1.824-1.625,2.109-1.862s.824-.263.839-.358.216-.1-.488-.423a3.549,3.549,0,0,1-1.372-.978c-.462-.481-.74-.625-1.042-.616a2.647,2.647,0,0,1-1.249.1c-.59-.164-1.12-.2-1.437-.7a3.674,3.674,0,0,1-.713-2.149c.085-.8.255-1.245.353-1.924s-.014-2.018.066-2.391a4.76,4.76,0,0,1,.786-1.518c.205-.168-.114-.149-.4-.531s-.569-.4-.441-.691.486-.538.314-1.095-.1-.9-.563-1.106-.54-1.545-.5-2.07.11-.6-.166-.966-.424-.435-.394-.645-.132-.148-.441-.4a7.327,7.327,0,0,1-1.047-.806c-.172-.242-.307-.2-.3-.734s.184-1.177-.112-1.31a8.933,8.933,0,0,1-1.007-.684c-.335-.228-1.235-.658-1.421-.776s-.427-.511-.5-.461a1.417,1.417,0,0,1-.66.553c-.478.186-1.137-.156-1.389.3a3.151,3.151,0,0,1-1.472,1.472c-1.112.7-1.64,1.363-2.27,1.067a9.273,9.273,0,0,1-2.128-1.212c-.359-.389-.859-.326-.445-.824s.423-.841.775-.956.468-.242.461-.471-.051-1.693-.042-1.712a.731.731,0,0,0-.461-.757c-.518-.213-.7-.179-.711-.569s.221-.549-.039-.694-.61-.229-.749.022-.333.153-.51.367a.935.935,0,0,1-1.191.188,5.732,5.732,0,0,0-1.119-.462c-.509-.232-.962-.419-.623-.971s.418-.384.414-1.116-.161-.814.066-1.144.623-1.152.735-1.1.219-.606-.5.015-1.151,1.243-1.531,1.026-.871-.117-1.245-.4a8.742,8.742,0,0,0-1.392-.739A7.611,7.611,0,0,1,1557.85,2018.8Z" transform="translate(-1520.913 -2018.272)"/>
      <path id="路径_13" data-name="路径 13" class="cls-3" d="M1820.633,2065.843a.635.635,0,0,0,.016-.074A.655.655,0,0,1,1820.633,2065.843Z" transform="translate(-1773.527 -2058.304)"/>
      <path id="路径_14" data-name="路径 14" class="cls-3" d="M1555.661,2508.753a.828.828,0,0,1,.051.109A.446.446,0,0,0,1555.661,2508.753Z" transform="translate(-1550.2 -2431.666)"/>
      <path id="路径_15" data-name="路径 15" class="cls-3" d="M1820.495,2066.24a.578.578,0,0,1-.026.073A.529.529,0,0,0,1820.495,2066.24Z" transform="translate(-1773.389 -2058.701)"/>
    </g>
    <g id="三遠" transform="translate(1120.925 2331.85)">
      <g id="组_4" data-name="组 4" transform="translate(0 0)">
        <g id="组_2" data-name="组 2" transform="translate(0 7.502)">
          <path id="路径_16" data-name="路径 16" class="cls-4" d="M1278.544,2598.417l.206-.186.067-.407-2.537-1.535.887-.962.845,0,1.2-1.988-1.073.032-3.243,1.645-1.7-.786-.152-1.246-1.987.365-2.506-1.085-3.016.09-.565-.631-2.239.769-1.4,1.968-.446.04-.611-.36-3.24,1.149-1.641.157.048,1.034-.668.6-1.1-.372-2.139.01-.478-.076-1.594,1.155-.366.128-.631-.638-1.192-.126-.018-.607s.057-.3-.012-.391-.433-.783-.752.468l-.352,1.468-1.671,1.534,1.067,1.251s-1.448,1.488-1.553,1.49-1.034.3-1.034.3l-.225,2.193-1.3.795,1.158,2.071.04,2.212-1.335,1.282.027.9.461.85a6.416,6.416,0,0,0-.557.813c-.022.122-.057,1.189-.057,1.189l-.926.379-1.3-.043-1.277,1.9-4.019.831-2.3-.642-1.928-.365-1.168-.937-2.289-.31-.649-.9-2.583-1.488-1.488.476-.341.712-1.878-.43-2.1.711-.688-.465-1.4,1.715.393,1.014-2.1.765-.705,2.4-2.621,2.436-.293,2.348s-.592.989-.747.994a10.419,10.419,0,0,1-1.238-1.528l-.883-.082.037,1.241-1.281,2.2.031,1.025-1.881,1.19-1.566,3.07.041,1.348-.767.347a15.473,15.473,0,0,0,1.322,1.04c-.1-.159,1.177-.629,1.177-.629l.021.683.753.337.584-.107-.1.687-.16,1.012.6.27,1.194.666.835-.367.074-.992.913,1.07,1.807-.2.27.37.661.16,1.228-1.1.277-.548.857.946,1.281.088,1.159-.5.605.036.327-.048-.015.358.774.859s.184.273.141.3a14.794,14.794,0,0,0-.922,1.233c.052-.011,1.38-.932,1.38-.932l-.037-2.113.044-.883,1.308-.7s.855.64.923.557,1.284-1.811,1.284-1.811l3.4,1.626,3.464-.734,2.316,1.227a1.087,1.087,0,0,1,.2.444c.033.233-.157.635-.237.619a5,5,0,0,0-.553.034s.275.361.407.357.379.313.379.313l.981-.453.622,1.088-1,1.461-.026,2.952.761.418,1.835-.154.155.76s-.54.781-.567.773-1.416.042-1.416.042a.508.508,0,0,0-.407-.366,15.342,15.342,0,0,0-1.618.057l.162,1.894,1.547-.1-.15.868s-1.435,1.761-1.506,1.745-2.407.153-2.426.127.012-.792.012-.792l.472-1.273a5.862,5.862,0,0,0,.777-.23c-.045-.026-.162-2.479-.162-2.479s-1.013-.3-1.048-.31-1.706,1.229-1.706,1.229l.1,1.428a7.519,7.519,0,0,1,.023.773c-.026.01-1.229.4-1.229.4l-.391.749-1.61.039s-1.069,1.049-1.122,1.05-1.462.287-1.462.287l-1.3.651-.881-.037-1.806,1.44-2.643.205.037,1.258-1.405.7-2.193-.033-.1-.789-1.638-.6.073-.5s.39.069.308-.01-1.333-.725-1.333-.725l-1.577,1.424s-3.064,6.444-3.037,6.461.689.079.689.079,6.3-1.358,6.271-1.366,2.861.292,2.861.292,8.132-2.691,8.105-2.717,11.249-3.549,11.249-3.549l6.969-1.855,6.917-1.878,1.555-2.695-1.34-1.552-.024-1.7-.4-1.014.227-3.894,1.238-.7-.018-1.205-.747-.859,1.062-.986.06-.937.57-.359,1.53-.369,1.26-.821.753.175,2.811-.079,1.766-1.119.721-.9s.527-.893.5-.9,1.186-.373,1.186-.373l2.5-2.513.01-1.143.656-1.027.2-1.689,1.427-1.743.47-.158.926.053,1.322-1.425.418-.724.788-.132-.654-.961-.013-.423.606-.621-.875-.721.3-.621,1.432-2.733,1.752-1.771.791-1.211,3.01-2.079.122-1.794.946-.172.788.156.8-1.212s-.146-.176-.2-.228-.43-2.012-.43-2.012l1.007-.174.584-1.088.022-.73a11.1,11.1,0,0,1,1.256-.1c.054.043-.015-.5-.015-.5Z" transform="translate(-1200.262 -2591.11)"/>
          <path id="路径_17" data-name="路径 17" class="cls-4" d="M1198.747,2657.29l-.075-.007c-.782-.072-.8-.085-.912-.155-.4-.253-.218-.649-.073-.968.082-.179.2-.433.342-.739.284-.607.665-1.415,1.046-2.222.763-1.614,1.529-3.225,1.529-3.225l.046-.1,1.912-1.726.305.158a8.172,8.172,0,0,1,1.454.812.568.568,0,0,1,.125.645l1.249.457.086.657,1.631.025,1-.5-.042-1.421,2.98-.231,1.831-1.46.939.039,1.246-.623.064-.013c.8-.162,1.171-.235,1.352-.268.178-.159.613-.576.978-.935l.142-.139,1.51-.037.349-.669.2-.064.867-.279c-.006-.112-.012-.235-.02-.346l-.126-1.723.235-.174c1.854-1.373,1.854-1.373,2.11-1.316.021,0,.053.012,1.082.32l.353.106.018.382c.04.83.091,1.748.125,2.167l.08.046-.044.365c-.045.355-.238.44-.9.609l-.345.931c0,.042,0,.085,0,.128l.78-.047c.483-.03.761-.047.929-.055.229-.25.757-.879,1.227-1.454l.01-.056-1.392.09-.253-2.951.516-.04a13.371,13.371,0,0,1,1.723-.054.96.96,0,0,1,.625.351c.438-.016.713-.025.891-.029.072-.1.166-.23.26-.364l-.014-.068-1.534.129-1.17-.643.03-3.446.9-1.314-.218-.381-.924.426-.248-.317a1.357,1.357,0,0,0-.117-.128,1.3,1.3,0,0,1-.673-.546l-.582-.764.93-.1c.135-.014.243-.024.329-.03a.232.232,0,0,0,.005-.028.452.452,0,0,0-.039-.1l-2.038-1.079-3.453.731-3.175-1.518c-.448.636-1,1.421-1.061,1.492-.326.4-.784.137-1.356-.281l-.769.409-.027.558.041,2.386-.232.161c-1.414.981-1.443.987-1.567,1.012l-.417.083-.159-.413c-.119-.311-.022-.439.515-1.147.106-.14.192-.251.261-.341l-.8-.888-.318-.019-1.161.5-1.6-.11-.51-.563-1.481,1.326-1.094-.265-.207-.284-1.782.2-.288-.338,0,.065-1.347.592-1.392-.776-.943-.428.216-1.367-.03.005-1.194-.535-.008-.264c-.091.042-.169.081-.227.113a.526.526,0,0,1-.108.148c-.323.31-.654.054-.874-.115-.115-.089-.272-.214-.466-.373-.33-.27-.656-.544-.656-.544l-.659-.554,1.224-.553-.034-1.129,1.7-3.324,1.747-1.1-.026-.872,1.281-2.2-.05-1.682,1.688.156.137.195c.265.375.58.8.807,1.083.085-.124.181-.271.272-.419l.3-2.428,2.657-2.469.739-2.512,1.839-.669-.308-.795,1.891-2.318.86.582,2-.677,1.624.372.261-.545,1.905-.61,2.87,1.654.584.81,2.212.3,1.179.946,1.846.352,2.183.61,3.7-.765,1.317-1.961,1.467.048.516-.211a8.2,8.2,0,0,1,.054-.923c.018-.1.04-.215.444-.76l-.354-.653-.038-1.279,1.338-1.284-.033-1.834-1.348-2.41,1.514-.928.233-2.275.322-.1c.561-.18.841-.259.99-.295.17-.145.605-.572,1.042-1.013l-1.085-1.271,1.937-1.779.314-1.307c.124-.486.327-1.046.817-1.134a.821.821,0,0,1,.832.465l.009.013a.984.984,0,0,1,.115.751l0,.082.922.1.534.541h0l1.7-1.232.64.1,2.181-.01.906.306.263-.238-.06-1.284,2.068-.2,3.4-1.206.673.4.058-.006,1.362-1.911,2.7-.928.63.7,2.895-.086,2.469,1.07,2.37-.436.183,1.5,1.222.563,3.128-1.586,2.144-.064-1.861,3.085-.91,0-.284.308,2.281,1.38-.158.96-.014.013.282.472.014.114c.057.449.106.836-.228,1.036l-.3.177-.145-.113c-.132.008-.349.028-.582.053l-.012.4-.764,1.425-.727.126c.111.559.219,1.081.272,1.292.05.057.1.119.138.161l.26.313-1.213,1.838-1.024-.2-.46.083-.112,1.641-3.136,2.165-.764,1.17-1.733,1.753-1.391,2.654-.107.224,1,.827-.861.881v.028l1.04,1.53-1.365.228-.326.563-1.524,1.644-1.064-.062-.243.082-1.234,1.507-.2,1.655-.638,1-.01,1.208-2.74,2.76-.122.037c-.354.106-.743.226-.964.3-.092.174-.23.408-.43.746l-.019.032-.8,1-1.955,1.239-3.01.085-.611-.142-1.155.751-1.533.371-.273.172-.056.878-.833.772.53.61.026,1.728-1.261.716-.2,3.478.392.994.023,1.6,1.465,1.7-1.858,3.218-7.119,1.933-6.961,1.853c-4.327,1.351-10.872,3.4-11.195,3.528a.433.433,0,0,0,.115-.066,2.276,2.276,0,0,1-.5.206c-.223.077-.542.186-.923.314-.761.256-1.774.6-2.788.932-2.026.675-4.05,1.344-4.05,1.344l-.1.034-.105-.011c-.987-.1-2.449-.254-2.778-.285-.062.017-.128.032-.194.046l-.713.157-2.156.469-3.136.678Zm2.731-6.745c-.886,1.864-2.1,4.428-2.664,5.64,2.4-.517,5.842-1.263,6.037-1.314a.461.461,0,0,0-.147.069.728.728,0,0,1,.453-.075l.326.033.984.1,1.325.137c3.083-1.02,7.675-2.548,7.955-2.663a.446.446,0,0,0-.1.055,3.362,3.362,0,0,1,.634-.24l1.278-.408c1.055-.334,2.462-.777,3.868-1.218,2.811-.883,5.622-1.76,5.622-1.76l.02-.006,6.969-1.855,6.713-1.823,1.252-2.17-1.215-1.408-.026-1.8-.408-1.033.251-4.31,1.215-.69-.01-.681-.965-1.11,1.292-1.2.064-1,.867-.546,1.526-.369,1.366-.889.9.209,2.612-.074,1.577-1,.644-.806c.166-.281.354-.608.423-.741.069-.276.33-.359.528-.423l.414-.129.474-.144,2.25-2.267.009-1.078.674-1.055.209-1.722,1.62-1.979.7-.235.787.046,1.119-1.207.511-.883.211-.035-.267-.393-.024-.817.352-.361-.747-.615.494-1.026,1.469-2.8,1.77-1.79.818-1.252,2.884-1.992.133-1.948,1.431-.26.552.109.386-.585a13.3,13.3,0,0,1-.486-2.173l-.1-.54,1.286-.222.4-.752.032-1.059.438-.052c.283-.034.51-.06.7-.078l-.515-.862.29-.263-2.71-1.64,1.489-1.616h.781l.538-.892h0l-3.358,1.7-2.188-1.009-.12-.989-1.6.295-2.543-1.1-3.138.094-.5-.557-1.774.609-1.443,2.024-.832.075-.55-.323-3.081,1.093-1.215.116.037.782-1.074.972-1.3-.438-2.1.01-.316-.05-1.486,1.077-.731.256-.727-.736-1.461-.155-.179.746-1.4,1.29,1.049,1.229-.346.355c-1.514,1.556-1.662,1.633-1.866,1.643-.088.02-.34.094-.608.177l-.216,2.109-1.079.661.968,1.732.047,2.591-1.332,1.279.016.528.57,1.051-.218.281c-.171.222-.376.5-.456.632-.013.186-.032.656-.045,1.055l-.011.35-1.337.546-1.124-.036-1.236,1.84-4.337.9-2.393-.669-2.03-.385-1.157-.928-2.366-.32-.713-.987-2.3-1.323-1.071.343-.422.879-2.132-.488-2.2.744-.515-.349-.908,1.113.478,1.233-2.363.86-.671,2.281-2.586,2.4-.282,2.266-.059.1c-.737,1.231-.955,1.238-1.166,1.244-.237.007-.41.012-1.527-1.552l-.079-.007.024.8-1.281,2.2.035,1.177-2.016,1.275-1.436,2.816.047,1.568-.3.137c.105.086.2.166.289.233a6.942,6.942,0,0,1,1.052-.462l.661-.243.032,1.074.311.14,1.137-.209-.208,1.424-.1.608.266.123.979.546.324-.142.143-1.918,1.537,1.8,1.832-.2.333.456.228.056.957-.857.565-1.118,1.211,1.336.96.066,1.157-.5.672.04.889-.132-.033.777.317.351-.013-.832.059-1.19,1.849-.984.254.19c.156.117.325.235.462.326.271-.382.722-1.021,1.033-1.463l.246-.35,3.63,1.734,3.475-.736,2.573,1.362.069.088a1.61,1.61,0,0,1,.307.7,1.336,1.336,0,0,1-.084.62l.761-.351,1.027,1.8-1.1,1.608-.022,2.458.352.194,2.136-.179.3,1.452-.132.191s-.137.2-.278.4c-.3.418-.46.645-.76.6-.179,0-.867.026-1.341.043l-.467.017-.044-.389a9.744,9.744,0,0,0-.976.027l.071.832,1.7-.11-.29,1.68-.089.109s-.365.448-.731.885c-.76.906-.915,1.092-1.212,1.048-.132,0-.623.034-1.02.059-.32.02-.651.04-.9.054-.537.03-.7.039-.87-.206-.117-.167-.121-.231-.086-1.129l0-.088.6-1.617.261-.065c.11-.028.231-.059.341-.088-.015-.208-.033-.491-.053-.842-.017-.31-.034-.62-.045-.852l-.474-.141c-.253.178-.756.545-1.255.913l.082,1.127s.013.2.022.4c.021.435.037.778-.336.917-.013,0-.034.013-1.052.34l-.433.83-1.709.041c-1.021,1-1.1,1.046-1.286,1.054-.133.023-.765.148-1.343.265l-1.356.678-.824-.034-1.78,1.419-2.307.179.033,1.1-1.814.9-2.754-.042-.12-.921-1.743-.637.108-.734-.411-.218Zm15.535-3.075h0Zm8.174-.718h0Zm-8.236-.347a.452.452,0,0,0-.054.007Zm11.871-4.83h0Zm-.172-.02a.824.824,0,0,1,.118.007A.457.457,0,0,0,1228.65,2641.554Zm-31.765-8.609h0Zm.848-.6,73.933-32.247,0,0Zm-32.925-.48h0Zm34.706-2.809.01.008Z" transform="translate(-1195.007 -2587.818)"/>
        </g>
        <g id="组_3" data-name="组 3" transform="translate(43.665)">
          <path id="路径_18" data-name="路径 18" class="cls-5" d="M1525.312,2543.6l-1.743.052-2.308,1.941-1.6.192s-.462.716-.651.775a9.461,9.461,0,0,1-1.032.121l-.525.916-.577,1.511-.724.022-.9-.225-.774-.463-.837.871-.025,1.458-1.092,1.6-1.484.044-1.091-.111-1.68,1.58-.866,1.646-1.138.034.013.432,1.15.343,1.031.977.052.574-.391.21.708,1.166-.072.488-.891.225-.569.017-.128.921-1.138,1.222-.259.008.258.532.082,1,.149.356-.99,1.559-1,.03-.474-.256.057,1.924-2.234,1.506-1.187.737-.99,1.559-1.542,1.576-.788,1.355-.389.857.858.964-.645.955.7.916,0,.5-.437.409-.983.029.022.755-1.442,1.447-1.57.047-1.019,1.146.037,1.241-.184,1.364-.73.427.045,1.492-2.6,2.6-1.467.044.03,1.007-.908.837-3.64.109-.913,1.215-.708.021-.4-.114-1.029.805-.725.021-.921.369.02.665-.47.447-.444.157.68.808.056,1.888-.642.469-.762.509.036,1.187-.079.831-.193.491.25.838-.01.234.29,1.611.018.593.939,1.376.05,1.672-.037.505-.2.2-.057.416s-.288.188-.236.205,1.139-.034,1.139-.034l1.306-.219.757-.113.273-.1,5.125-.135.472.184-.254-.388-.68-.79-.009-.288.269-.242-.85-.137-.346-.025-.25-.263,0-.684-1-1.067-.311-.009-.23.4-.449.013-1.156-.541-.263-.136-.054-.646.212-.42.5-.159.25-.3-.231-.209-.289-.4-.09-.717.046-.2-.172.023-.063.2-1.275.11-.227-.083-.061-.9.286-.26.412-.066.271-.188.642-.487.527-.3.426-.192.4-.048-.017-.557-.333-.17-.043-.862.256-.1.006-.378.3-.53.2-.69.638-.038.467.6.272-.134,1.243-.019.058.772-.279-.063-.19.545-.177.456-.132.22-.036.523-.643.433-.415-.005.045.358.421.2.314-.459.524-.375.037-.487.141-.472.3-.333.674,0,.491-.338,1.061-.338.142.122.7.177v.558l.535,0,.014-.685s.423-.858.425-.8.239-.673.239-.673l.864.029.144.193.5,0,.147.3.535-.016.128.248.26.028-.066.686-.111.345-.045.235-.218.2-.48.1-.115.2h-.656l-.042.308-.519-.021-.161.4.438.221.436.131.193.1-.076.344-.527.268-.409.192-.57-.019-.388-.258-.2.384.059.25-.4.336-.482.608-.2.258-.256.674-.057.416-.177.437-.164.311v.612l-.221.114-.024.361.021.125,1.3.015.105-.525-.125-.7.249-.349.106-.489.289-.17s.314-.478.281-.423.406.276.406.276l.143.157s.446-.1.395-.083a6.279,6.279,0,0,1,.04-.973l.437-.391.706-.651.83-.547.6-.09.275.55-.02.487-1.1,1.311.512.363s.114.32-.377.677-1.152.61-1.262,1.1-.207.727-.495.915l-.329.406.079.265.408.643,0,.337,0,.148-2.232.087s-.423.37.493.255c0,0,.508-.11.69.567a.493.493,0,0,1,.231.587c-.138.382.246.195.246.195l1.864-.042a10.365,10.365,0,0,1,1.25-.01c.209.047.641.2.641.2l1.566-.046a4.019,4.019,0,0,1,.954.268,7.364,7.364,0,0,0,1.256.421c.052.012,1.448.348,1.539.359s1.329.271,1.329.271a3.008,3.008,0,0,1,1.288.191c.707.262,2.924.776,2.924.776s.814.367,1.062.441a9.015,9.015,0,0,0,2.085.005,8.5,8.5,0,0,0,1.791-.729s1.587-.628,1.756-.633,1.921-.3,1.921-.3a14.725,14.725,0,0,0,1.735-.457,2.283,2.283,0,0,1,.86-.282c.3-.049,2.109-.063,2.109-.063a28.435,28.435,0,0,1,4.036-.161,33.038,33.038,0,0,1,3.923.382c.651.116,2.97.573,2.97.573s4.5.776,4.613.932a25.908,25.908,0,0,1,5.05,1.695c3.74,1.643,6.477,2.614,6.606,2.623s2.058.4,2.459.386a2.427,2.427,0,0,0,.923-.325l-.431-.136s-.685.061-.848-.2-.848-1.054-.848-1.054-1.468-1.009-1.6-2a15.566,15.566,0,0,1-.172-3.6,17.119,17.119,0,0,1,1.173-1.911,4.877,4.877,0,0,0,.545-1.7,3.918,3.918,0,0,1,.8-2.143,10.791,10.791,0,0,0,1.435-1.379c.086-.151.488-.6.3-.724s-.383-.259-.146-.536.927-.595.728-.791-.442-.068-.745-.653-.451-1.242-1.241-1.664a7.877,7.877,0,0,0-3.413-1.085c-1.387-.04-1.8.121-1.923-.213s-2.453-.183-2.453-.183-.749-.369-.666-.614-.364-.043-.364-.043a13.3,13.3,0,0,1-.725,1.3c-.065,0-.776.037-.724.035s.139-.112-.317-.651-.158-.954-.612-.967-.953.177-1.047.072-.037-1.241-.166-1.224-.415-.014-.423-.284a5.481,5.481,0,0,0-.023-1.214c-.1-.186.313-.778-.929-.742s-1.44-.092-1.5-.7.032-.663-.928-.728-1.852-.417-1.45-2.157,1.131-2.463.968-2.715-1.332-.81-1.361-1.335-.437-1.2-.774-1.219a.776.776,0,0,1-.647-.426c-.1-.187-.894-.014-1.212-.261s.06-1.459-.038-1.7a2.034,2.034,0,0,1-.237-.992c-.018-.607-.325-.476-.33-1.057s-.122-1.062.359-1.428,1.614-1.034,1.7-1.333a1.316,1.316,0,0,0-.451-1.215,14.343,14.343,0,0,1-1.327-1.067c-.308-.342-.267-.721.2-.749a7.822,7.822,0,0,0,2.211-1c.227-.2.561-.287.225-1.154a9.179,9.179,0,0,1-.739-1.773,1.475,1.475,0,0,1,.516-.919.648.648,0,0,0,.077-.88c-.2-.25-.287-.491.087-.974s.862-1.079.8-1.293-.523-.16-.941-.714-.418-1-.719-1.085-1.81.108-2.149.023-.4.174-.482-.539a1.678,1.678,0,0,0-.422-1.108,1.457,1.457,0,0,1-.745-1.516c.028-1.216,0-1.026.286-1.683a5.8,5.8,0,0,1,1.144-2.032c.777-.887,1.052-.773,1.267-1.388s.471-.271.469-1.188.138-1.435-.125-1.6-.832-.083-1.377-.566a2.31,2.31,0,0,1-.557-1.751c0-.432-.368-.165-.75-.383s-.995-.348-.2-1.168.807-.74.776-1.333-.045-1.065.285-1.291a.719.719,0,0,0,.348-.487Z" transform="translate(-1475.745 -2543.039)"/>
          <path id="路径_19" data-name="路径 19" class="cls-6" d="M1544.3,2612.684a15.089,15.089,0,0,1-2.078-.309c-.2-.037-.4-.074-.446-.079h.007a67.589,67.589,0,0,1-6.763-2.664,20.833,20.833,0,0,0-4.571-1.549,1.422,1.422,0,0,1-.559-.183c-.42-.134-2.527-.533-4.417-.859l-.011,0c-.023,0-2.322-.458-2.961-.571a31.862,31.862,0,0,0-3.86-.375,28.1,28.1,0,0,0-3.955.158l-.027,0h-.027c-.852.006-1.871.03-2.032.056a3.732,3.732,0,0,0-.593.157,2.846,2.846,0,0,1-1.107.377c-.431.1-.865.2-.869.2l-.023,0c-.627.106-1.677.279-1.946.3-.173.042-.953.334-1.6.591a8.329,8.329,0,0,1-1.927.768,9.071,9.071,0,0,1-2.3-.021c-.246-.073-.872-.35-1.081-.444-.336-.079-2.259-.532-2.937-.784a2.569,2.569,0,0,0-1.059-.163l-.078.008-.08-.016c-.573-.121-1.213-.252-1.295-.265-.051-.006-.19-.034-1.436-.332l-.146-.035a6.386,6.386,0,0,1-1.432-.5,4.85,4.85,0,0,0-.705-.175l-1.6.048-.086-.03c-.111-.038-.43-.145-.582-.18a10.735,10.735,0,0,0-1.12.021h-.016l-1.773.04a.66.66,0,0,1-.7-.119.693.693,0,0,1-.149-.736l-.193-.089-.032-.226c-.014-.053-.052-.17-.107-.182l-.037.014.01-.012c-.3.037-.91.114-1.117-.381a.717.717,0,0,1,.231-.813l.135-.117,1.8-.07-.247-.389-.184-.617.561-.692.067-.044c.11-.072.167-.127.27-.585a2.009,2.009,0,0,1,1.088-1.174c.136-.084.265-.163.379-.245l.047-.037-.655-.464,1.363-1.623.006-.157-.043-.086-.134.02-.7.463-.675.622-.285.256c-.018.222-.033.444-.035.561l.134.476-.719.274-.041-.032-.153.035-.284.066-.249-.274-.053.08-.195.115-.08.369-.18.253.1.574-.212,1.056-2.142-.025-.105-.627.048-.729.2-.1v-.418l.214-.407.141-.349.056-.41.307-.808.248-.32.521-.656.19-.158-.028-.116.547-1.074.736.491.311.01.157-.074-.768-.387.485-1.208.414.016.04-.289.808,0,.082-.143.557-.122.027-.118.093-.289.009-.1-.021,0-.107-.207-.543.017-.153-.313-.438,0-.149-.2-.247-.008a1.9,1.9,0,0,1-.2.457c-.048.083-.187.355-.315.611l-.022,1.084-1.55-.006v-.671l-.418-.106-.02-.017-.727.231-.556.384-.607,0-.07.077-.089.3-.052.681-.65.466-.508.743-1.063-.514-.159-1.26.85.012.3-.2.027-.39.175-.292.156-.4.181-.517-.414.006-.535.264-.555-.712h-.021l-.116.394-.258.463-.009.605-.231.088.008.155.34.173.041,1.369-.787.095-.334.151-.477.275-.633.48-.365.253-.359.058.012.183.64-.055.058-.183,1.23-.166-.2.858.061.482.176.247.578.524-.687.811-.431.138-.043.085.016.191,1.035.484h.05l.24-.42.819.023,1.289,1.378,0,.648.161.014,1.949.313-.849.764.517.607,1.158,1.775-1.885-.734-4.947.13-.245.087-.8.12-1.355.225a4.784,4.784,0,0,1-1.309.012l-.317-.1-.051-.348a.616.616,0,0,1,.274-.58l.05-.362.188-.19.02-.275-.044-1.482-.939-1.375-.021-.713-.294-1.631.009-.2-.278-.932.234-.6.068-.719-.044-1.454,1-.666.408-.3-.042-1.409-1.065-1.263,1.069-.378.217-.207-.024-.8,1.341-.538.65-.02,1.1-.859.569.162.391-.012.914-1.215,3.695-.111.589-.543-.038-1.291,1.781-.054,2.293-2.291-.047-1.578.779-.456.142-1.058-.042-1.413,1.307-1.471,1.587-.047,1.136-1.14-.031-1.052,1.308-.04.129-.121v-.08l-.828-1.081.627-.929-.811-.912.562-1.232.822-1.413,1.549-1.583,1.024-1.614,1.279-.794,1.985-1.338-.075-2.53,1.13.609.6-.018.69-1.087-.072-.171-.081-.99-.575-1.188.855-.025.878-.943.166-1.194.945-.028.466-.117-.873-1.438.581-.312v-.009l-.795-.753-1.395-.417-.041-1.355,1.358-.041.767-1.457,1.911-1.8,1.284.131,1.2-.036.853-1.248.026-1.509,1.26-1.311,1.049.627.767.191.321-.01.468-1.226.683-1.191.266-.019c.316-.023.7-.061.866-.089a4.72,4.72,0,0,0,.428-.574l.131-.2,1.687-.2,2.327-1.957,2.716-.081-.041.59a1.234,1.234,0,0,1-.577.895c-.095.064-.069.554-.056.817.038.729-.082.878-.652,1.458l-.274.281a2,2,0,0,0-.165.19l.075.038c.061.031.121.062.177.093a.5.5,0,0,0,.214.04.75.75,0,0,1,.8.812,1.86,1.86,0,0,0,.376,1.344,1.5,1.5,0,0,0,.763.329,1.593,1.593,0,0,1,.548.188c.448.284.421.815.393,1.378-.01.2-.021.423-.021.68a1.382,1.382,0,0,1-.368,1.154.452.452,0,0,0-.133.218,1.758,1.758,0,0,1-.67.9,5.04,5.04,0,0,0-.7.669,4.243,4.243,0,0,0-.882,1.47c-.053.135-.108.275-.176.426l-.074.165c-.145.32-.145.32-.159.994l-.007.313c-.016.677.179.811.367.94a1.253,1.253,0,0,1,.242.2,2.2,2.2,0,0,1,.553,1.4c0,.024.006.047.009.067.026,0,.054.01.083.018a8.01,8.01,0,0,0,.945-.026,4.417,4.417,0,0,1,1.221.007,1.123,1.123,0,0,1,.676.722,2.817,2.817,0,0,0,.312.549,1.087,1.087,0,0,0,.488.361.838.838,0,0,1,.544.538c.119.439-.188.862-.788,1.631l-.11.141a.917.917,0,0,0-.142.231.587.587,0,0,0,.047.065,1.19,1.19,0,0,1-.114,1.607,1.015,1.015,0,0,0-.36.561,3.386,3.386,0,0,0,.252.566c.133.265.3.593.45.981.39,1.005.083,1.418-.308,1.714-.022.017-.044.033-.065.051a8.765,8.765,0,0,1-2.257,1.076,8.319,8.319,0,0,0,.655.516c.174.129.354.262.51.391a1.863,1.863,0,0,1,.627,1.78c-.1.367-.5.666-1.373,1.259-.2.134-.386.262-.513.358-.157.119-.178.21-.158.695,0,.1.008.2.009.3a.264.264,0,0,0,.063.21,1.389,1.389,0,0,1,.266.834,1.372,1.372,0,0,0,.135.659c.021.046.042.091.062.141a1.744,1.744,0,0,1,.006.869,5.074,5.074,0,0,0-.058.629,3.138,3.138,0,0,0,.374.031c.339.015.724.031.907.387a.261.261,0,0,0,.22.145c.706.036,1.212,1.019,1.261,1.7a3.116,3.116,0,0,0,.7.6,2.111,2.111,0,0,1,.574.5c.242.374.052.755-.169,1.2a8.191,8.191,0,0,0-.725,1.942,1.625,1.625,0,0,0,.041,1.156,1.227,1.227,0,0,0,.944.342c.936.064,1.324.179,1.394,1.069,0,.043.007.09.012.141a1,1,0,0,0,.025.165,2.945,2.945,0,0,0,.946.05,1.491,1.491,0,0,1,1.218.352.989.989,0,0,1,.226.785h0a3.1,3.1,0,0,1,.047,1.024c0,.029,0,.059,0,.087a.532.532,0,0,1,.253.124c.227.2.24.493.264,1.027l0,.045a3.184,3.184,0,0,1,.612-.053.812.812,0,0,1,.8.739.806.806,0,0,0,.183.409,3.3,3.3,0,0,1,.33.45l.053,0c.134-.236.36-.664.547-1.032l.083-.165.164-.074a.771.771,0,0,1,.911.043.613.613,0,0,1,.179.4,2.3,2.3,0,0,0,.253.165c.213-.011.636-.029,1.073-.026.9.006,1.457.081,1.685.43.106.007.288,0,.466,0,.273-.006.613-.013,1.057,0a8.4,8.4,0,0,1,3.633,1.144,2.9,2.9,0,0,1,1.3,1.556c.053.117.1.227.157.331.113.219.165.24.268.283a1.1,1.1,0,0,1,.377.234.656.656,0,0,1,.2.512c-.025.369-.326.589-.616.8l-.1.075a.657.657,0,0,1,.14.313,1.286,1.286,0,0,1-.349.922c-.027.037-.051.068-.065.092a10.421,10.421,0,0,1-1.595,1.551,4.29,4.29,0,0,0-.575,1.76,5.308,5.308,0,0,1-.578,1.842l0,.009a2.281,2.281,0,0,1-.208.331,13.211,13.211,0,0,0-.955,1.551,16.547,16.547,0,0,0,.2,3.342c.076.567.96,1.344,1.376,1.631l.054.038.044.05c.111.127.64.742.855,1.058a1.424,1.424,0,0,0,.417.025l.1-.008.526.165,1.138.357-1.029.616A2.787,2.787,0,0,1,1544.3,2612.684Zm-2.4-1.446c.066.008.186.03.492.086.213.039.55.1.882.157-.16-.2-.37-.451-.537-.644a4.3,4.3,0,0,1-1.77-2.336,16.092,16.092,0,0,1-.146-3.855,10.7,10.7,0,0,1,1.081-1.8c.057-.084.1-.148.124-.184l.025-.049a4.213,4.213,0,0,0,.461-1.462c.1-.832.5-2.215,1.06-2.543a12.221,12.221,0,0,0,1.26-1.209c.031-.052.07-.1.113-.165l.045-.062a.763.763,0,0,1-.189-.417.86.86,0,0,1,.234-.677,2.089,2.089,0,0,1,.324-.29,1.737,1.737,0,0,1-.41-.545c-.067-.129-.125-.257-.181-.381a1.889,1.889,0,0,0-.843-1.06,7.51,7.51,0,0,0-3.193-1.027c-.42-.012-.746,0-1.009,0-.57.012-1.036.021-1.288-.369a10.531,10.531,0,0,0-2.035-.028l-.132.009-.119-.059a2.775,2.775,0,0,1-.613-.393c-.526,1.013-.626,1.083-.908,1.09l-.7.034h-.029l-.512.016-.019-.533a.628.628,0,0,1,0-.071,2.856,2.856,0,0,0-.189-.244,1.82,1.82,0,0,1-.392-.781c-.125.01-.252.032-.368.051-.32.055-.652.112-.89-.155-.171-.191-.182-.433-.2-.914,0-.057-.006-.129-.01-.2a.829.829,0,0,1-.246-.151.81.81,0,0,1-.268-.59c0-.1,0-.239.01-.4a5.227,5.227,0,0,0,.006-.626.839.839,0,0,1-.052-.393,1.817,1.817,0,0,0-.388-.021c-1.151.034-1.915-.029-2.023-1.181-.005-.057-.01-.109-.013-.157l0-.049c-.14-.02-.349-.034-.434-.04a2.16,2.16,0,0,1-1.7-.775,2.465,2.465,0,0,1-.213-2.04,9.161,9.161,0,0,1,.813-2.184c.032-.064.067-.135.1-.2l-.165-.117c-.5-.35-1.118-.786-1.152-1.4a1.217,1.217,0,0,0-.334-.717,1.267,1.267,0,0,1-.914-.52l-.159-.008a1.757,1.757,0,0,1-1.022-.26c-.442-.344-.351-1.021-.27-1.618.015-.113.037-.276.041-.359l-.02-.043a2.451,2.451,0,0,1-.233-1.084.331.331,0,0,0-.075-.245,1.313,1.313,0,0,1-.255-.825c0-.089,0-.176-.008-.26a1.675,1.675,0,0,1,.577-1.6c.149-.114.348-.248.558-.391a8.346,8.346,0,0,0,.952-.705.828.828,0,0,0-.28-.6c-.135-.111-.3-.231-.468-.357a6.411,6.411,0,0,1-.915-.763,1.078,1.078,0,0,1-.281-1.1.87.87,0,0,1,.822-.547,8.147,8.147,0,0,0,1.917-.879c.034-.029.073-.059.112-.089.022-.017.05-.038.068-.053a1.244,1.244,0,0,0-.106-.4c-.132-.339-.278-.629-.407-.886a2.376,2.376,0,0,1-.369-1.112,2,2,0,0,1,.673-1.28c.034-.034.084-.1.041-.152a1.2,1.2,0,0,1,.08-1.652l.112-.144c.124-.159.318-.408.451-.6a2.014,2.014,0,0,1-.7-.6,3.83,3.83,0,0,1-.429-.746c-.023-.05-.052-.112-.075-.156-.179-.008-.568.016-.838.032a5.181,5.181,0,0,1-1.241,0,.283.283,0,0,0-.085,0c-.667.015-.737-.564-.788-.988-.066-.545-.16-.665-.28-.8l-.063-.044a1.889,1.889,0,0,1-.828-1.859l.007-.31a2.6,2.6,0,0,1,.256-1.425l.071-.158c.058-.131.107-.254.158-.385a5.275,5.275,0,0,1,1.072-1.782,6.019,6.019,0,0,1,.827-.792c.22-.179.266-.215.337-.42a1.487,1.487,0,0,1,.38-.615c.01-.012.021-.021.031-.033a1.366,1.366,0,0,0,.028-.356c0-.285.012-.536.022-.738.008-.148.016-.322.013-.433l-.13-.028a2.466,2.466,0,0,1-1.226-.563,2.6,2.6,0,0,1-.736-1.917,1.256,1.256,0,0,1-.485-.155c-.041-.024-.086-.046-.13-.068a1.106,1.106,0,0,1-.714-.782,1.452,1.452,0,0,1,.524-1.165c.107-.111.2-.206.281-.288a3.376,3.376,0,0,0,.354-.387c0-.025,0-.162-.008-.252a3.064,3.064,0,0,1,.1-1.24l-.744.022-2.289,1.924-1.518.182c-.469.682-.691.751-.79.783a5.675,5.675,0,0,1-.878.122l-.368.642-.685,1.8-1.128.034-1.043-.259-.5-.3-.415.431-.024,1.408-1.331,1.948-1.8.049-.866-.088-1.448,1.362-.906,1.723h0l1.178,1.117.1,1.14-.2.107.512.843-.153,1.039-1.276.322-.193.006-.091.649-1.172,1.259.052.108.083,1.021.226.541-1.289,2.031-1.22.037.043,1.421-2.492,1.68-1.087.676-.955,1.5-1.534,1.569-.741,1.274-.23.507.9,1.016-.663.981.574.75,0,.928-.745.7-.659.02.014.458-1.748,1.753-1.553.046-.731.822.032,1.068-.225,1.67-.68.4.042,1.406-2.905,2.9-1.152.035.022.723-1.226,1.13-3.586.107-.914,1.215-1.023.031-.232-.066-.959.75-.8.023-.5.2.016.533-.594.563.346.411.071,2.368-.885.646-.518.346.024.954-.086.907-.151.387.222.745-.012.266.286,1.591.014.473.939,1.375.053,1.891-.051.706-.021.021.117-.005,1.277-.214.717-.106.3-.109,4.482-.118-.231-.269-.01-.325-.13-.021-.518-.038-.533-.561,0-.687-.584-.624-.147.258-.847.025-1.281-.6-.521-.27-.092-1.1.38-.754.316-.1-.225-.316-.043-.342-1.086.094-.648-.238-.1-1.513.589-.537.447-.072.168-.117.686-.516.57-.326.239-.108-.058-.029-.078-1.57.281-.107,0-.151.332-.6.291-.986,1.255-.073.378.484.009,0,1.836-.028.094,1.265.345-.238,1.395-.444.264.227.624.158c.038-.076.087-.174.138-.272a4.118,4.118,0,0,1,.234-.423c.038-.1.125-.359.194-.571l.122-.373,1.484.049.139.187.564,0,.142.291.526-.016.15.29.5.054-.122,1.275-.118.37-.072.376-.447.419-.4.086-.148.259h-.5l-.008.059.5.264-.14.637.457-.3,1.07-.16.507,1.013-.033.817-.838,1,.169.12.057.161a1.148,1.148,0,0,1-.564,1.3c-.145.106-.3.2-.444.29-.245.151-.581.357-.613.5a1.809,1.809,0,0,1-.649,1.195l-.085.1.412.648,0,.491.02.667-1.152.045.007.016a1.049,1.049,0,0,1,.326.576l1.564-.035a7.715,7.715,0,0,1,1.378,0c.175.04.46.133.605.182l1.528-.046.051.009a2.7,2.7,0,0,1,1.171.364,10.494,10.494,0,0,0,1.065.332l.151.036c.816.2,1.269.3,1.347.315.109.017.541.1,1.286.261a3.565,3.565,0,0,1,1.429.226c.669.249,2.842.753,2.864.758l.048.011.045.021c.325.147.85.373,1,.417a9.345,9.345,0,0,0,1.874-.01,7.616,7.616,0,0,0,1.63-.675l.051-.023a8.112,8.112,0,0,1,1.922-.667c.12-.009,1.031-.155,1.842-.292.6-.132,1.32-.305,1.542-.379a2.435,2.435,0,0,1,1.065-.362c.3-.05,1.7-.065,2.16-.069a28.348,28.348,0,0,1,4.09-.161,32.976,32.976,0,0,1,3.986.389c.638.114,2.816.542,2.973.573,3.629.626,4.509.84,4.79,1,.049.012.132.029.208.044a21.7,21.7,0,0,1,4.775,1.614C1538.9,2610.179,1541.558,2611.142,1541.907,2611.237Zm-.045,0,.032,0Zm-33.808-3.877-.033,0Zm-15.431-1.246a.474.474,0,0,0,.051.042A.529.529,0,0,1,1492.623,2606.109Zm.634-.83Zm49.717-2.208h0Zm-68.548,2.04Zm69.693-5.6Zm-59.561,1.364h.142l-.11-.614-.033.063Zm.313-1.263v0Zm.069-.449-.049.356.112-.513.382-.227.174-.262a.5.5,0,0,1,.746-.207l.161.11c.009-.1.019-.212.03-.335l.02-.213.751-.677-.284.134-.633-.021.011.045-.619.514-.6.756Zm59.892-1.755-.006.011Zm-10.952-5.417a.465.465,0,0,0-.243.079.71.71,0,0,1,.243-.075Zm-47.832.6a.448.448,0,0,0-.045.058C1486.017,2592.625,1486.032,2592.605,1486.048,2592.587Zm44.808-4.08h0Zm-.024-.062Zm-4.217-8.63Zm-3.673-3.422Zm1.526-5.155Zm1.507-8.915Zm.052-1.91Z" transform="translate(-1472.831 -2540.087)"/>
        </g>
      </g>
    </g>
    <g id="中央道" transform="translate(1126.018 2275.812)">
      <path id="路径_20" data-name="路径 20" class="cls-7" d="M1274.749,2239.637a3.264,3.264,0,0,1,1.692-.546c.161-.023.372-.053.477-.079l.185-.2a14.444,14.444,0,0,0,1.447-1.679,8.842,8.842,0,0,0-.426-1.936,3.255,3.255,0,0,1-.167-1.084,11.816,11.816,0,0,0-.164-1.365c-.012-.041-.017-.06-.295-.152a2.464,2.464,0,0,1-.57-.251,3.18,3.18,0,0,0-.592-.274,2.054,2.054,0,0,1-.514-.248.6.6,0,0,1-.213-.723c.117-.271.383-.515,1.472-.257a7.583,7.583,0,0,0,2.975-.185,3.226,3.226,0,0,0,1.172-.619,2.758,2.758,0,0,1-.61-.809c-.221-.443-.294-.507-.372-.575a1.818,1.818,0,0,1-.2-.2,1.888,1.888,0,0,1-.274-1.306l-.12-.1a3.84,3.84,0,0,1-.544-.505c-.174-.207-.262-.249-.7-.438l-.319-.138c-.255-.113-.573-.254-.632-.618a.794.794,0,0,1,.341-.72,3.407,3.407,0,0,0,.541-.618,2.272,2.272,0,0,1,1.547-1.064,3.5,3.5,0,0,0,.655-.22c.323-.152.312-.2.246-.457a1.882,1.882,0,0,1-.05-.244,1.287,1.287,0,0,0-.063-.167,3.807,3.807,0,0,1-.316-1.441c-.057-1.178-.058-1.92.4-2.284a1.528,1.528,0,0,1,1.078-.192l.111.007a.9.9,0,0,1,.153-.446,1.578,1.578,0,0,0,.046-.259,8.365,8.365,0,0,1-.652-.623c-.585-.65-.909-1.591-2.2-2.2a11.37,11.37,0,0,1-1.818-1.136c-.682-.379-1.251-2.149-1.554-2.528s1.024-1.768.279-2.233c-.927-.579-.918-.9-1.675-.744a3.829,3.829,0,0,1-2.261-.01c-.909-.3-.076-.682-.606-1.364s-.227-.757-.379-1.439.3-.833.833-1.894a6.978,6.978,0,0,0,.909-2.272c.076-.682-1.779-1.391-2.325-2.756-.526-1.316-1.462-1.485-1.992-2.015s-.227-1.364.076-2.878-.909-1.288-1.667-1.818-.3-1.515-.682-2.5-1.061-.076-1.591.152-.3.455-1.212-1.212-2.878-.151-3.635-.454.757-.455.757-1.212a4.758,4.758,0,0,0-.606-1.818l-1.818-.757-1.363.455c-.6.174-.829,1.383-1.078,2.192s-1.432,1.93-2.116,3.113-.374.934.062,2.116-.249,1.556.125,2.677.623.809.747,1.494.809.748,1.432.809.436.5.623,1a1.94,1.94,0,0,0,.872,1,4.666,4.666,0,0,0,1.93,1.183,8.433,8.433,0,0,1,2.054.56c.934.374.436,1.183.747,1.805a1.34,1.34,0,0,1-.934,1.681c-.685.187-.436.809-.5,1.369s-.311.436-.871,1-.747.311-.809.934.187.872.623,1.618.374.623.374,1.246a5.344,5.344,0,0,1-.249,1.307c-.125.685-.934.249-.934.249s-1.121-.435-1.494-.622-.311.187-1.121.124-1.058.374-1.12.81.062.872-.125,1.245-.56-.5-.809-.5-.374.312-.747.747a1.36,1.36,0,0,1-1.494.5c-.622-.187-.934.374-1.12.56s-1.121,0-1.556,0a1.95,1.95,0,0,0-1.556.561c-.374.5.623.56.934.623s.311.622.436,1.556-.125.809-.622,1.245-.56-.062-1.058.249,0,1-.062,1.307-.5-.062-.685.187-.062.56-.249,1-.56.187-.623.5.97.309.97.309a5.11,5.11,0,0,1,.965.614c.263.263.088.877.263,1.141s1.316.7,1.228,0,.439-1.053.79-1.4.614.614.614,1.228.176.615.614.965,1.667-.088,2.281.175.175.527.351,1.053-1.316,1.4-2.018,2.018a10.652,10.652,0,0,1-3.158,1.579c-1.053.351-.965,1.755-1.141,2.983s-2.106,1.14-2.72,1.4-2.72-.7-3.773-1.141-.965,1.141-2.193,1.667-1.866-1.1-1.866-1.1a9.11,9.11,0,0,0-1.048-1.16,1.153,1.153,0,0,0-1.31.449c-.15.412-.449.449-.9.449s-1.085-.449-.9-.225-.636.262-1.01.262-.861.038-1.422,0-.6-.674-.711-1.235a5.361,5.361,0,0,0-.711-1.572c-.3-.524-.262-1.085-.524-1.01s.15,1.2.038,1.833-.487.262-.487.936.075.9-.374,1.235-.449.9-.412,1.759a6.214,6.214,0,0,1,0,1.459c-.075.6.374.561.636.524a2.033,2.033,0,0,1,1.347,0c.524.262.3.411.374.973s-.038.486-.6.673.075.524.15,1.048.486.374.9.486.412.3.449.9a1.372,1.372,0,0,0,.449,1.048c.3.374,0,0,.411.075a.926.926,0,0,0,.861-.225c.112-.15.337-.6.524-.711a2.278,2.278,0,0,1,1.459-.038,1.87,1.87,0,0,1,1.048.936c.225.374.748.636.9.823s.636,0,1.272-.037a1.314,1.314,0,0,1,1.01.262,2.406,2.406,0,0,1,.786,1.01c.112.225,0,.486-.15.861s.187.524.524.823a1.972,1.972,0,0,0,1.01.561c.337.038.786-.075,1.122-.037s.412-.412.561-.749.412-.262.636-.112a1.9,1.9,0,0,0,.935.112,1.569,1.569,0,0,0,1-.42,2.11,2.11,0,0,1,1.6-.666c.865,0,.532-.465.732-1.131s.332-.532.6-.665.6-.532.931-.266,1-.133,1.33-.133a5.507,5.507,0,0,0,1.2-.466c.4-.133.665.4,1.2.8s1.863.732,2.129,1.064-.067,1.2,0,1.663,1-.2,1-.2a6.537,6.537,0,0,0,1.33.066c.4-.066.466-.2.466-.2s.6.266.865.133.4.731.2,1.2.066.666.2,1.064.532.133.732-.067.732.067.931.333a.544.544,0,0,0,.8,0c.2-.2.665-.066.931.4a8.192,8.192,0,0,0,.665,1.33c.266.266.6-1.064.931-1.53s.748.1.887-.038.348-.348.557-.243.383-.1.557-.418.348-.383.522-.243.487-.278.522-.452a1.658,1.658,0,0,1,.313-.487l.731-.418.974-.174c.383-.07.1-.279.1-.453s.313-.035.313-.035.487.14.487,0a.515.515,0,0,1,.452-.417c.278-.035.383-.209.522-.313s-.035-.418.069-.487.278.035.418,0-.139-.522-.139-.834.174-.279.278-.383a3.753,3.753,0,0,1,1.322.278,2.655,2.655,0,0,0,.939.209,2.828,2.828,0,0,0,.585-.229h0a1.218,1.218,0,0,1-.22-.615A3.126,3.126,0,0,1,1274.749,2239.637Z" transform="translate(-1227.412 -2183.537)"/>
    </g>
    <g id="東海北陸道" transform="translate(1090.679 2244.901)">
      <g id="组_5" data-name="组 5" transform="translate(0 0)">
        <path id="路径_21" data-name="路径 21" class="cls-8" d="M1037.914,2068.872c-.038-.86-.038-1.422.412-1.759s.374-.561.374-1.234.374-.3.486-.936-.3-1.759-.038-1.833.225.486.524,1.01a5.373,5.373,0,0,1,.711,1.571c.112.562.15,1.2.711,1.235s1.048,0,1.422,0,1.2-.037,1.01-.262.449.225.9.225.748-.038.9-.449a1.153,1.153,0,0,1,1.31-.449,9.119,9.119,0,0,1,1.048,1.16s.638,1.622,1.866,1.1,1.141-2.106,2.193-1.667,3.159,1.4,3.773,1.141,2.545-.176,2.72-1.4.088-2.632,1.141-2.983a10.638,10.638,0,0,0,3.159-1.579c.7-.614,2.193-1.492,2.018-2.018s.263-.79-.351-1.053-1.843.176-2.281-.175-.614-.351-.614-.965-.263-1.579-.614-1.228-.877.7-.79,1.4-1.053.264-1.229,0,0-.877-.263-1.14a5.115,5.115,0,0,0-.965-.614s-1.032,0-.97-.309.436-.062.623-.5.062-.748.249-1,.623.125.685-.187-.436-1,.062-1.307.56.187,1.058-.249.747-.312.623-1.245-.125-1.494-.436-1.557-1.307-.124-.934-.622a1.948,1.948,0,0,1,1.556-.561c.436,0,1.37.187,1.556,0s.5-.747,1.121-.56a1.36,1.36,0,0,0,1.494-.5c.374-.436.5-.747.747-.747s.623.872.809.5.062-.809.125-1.245.311-.871,1.121-.809.747-.311,1.121-.125,1.494.623,1.494.623.809.436.934-.249a5.345,5.345,0,0,0,.249-1.307c0-.623.062-.5-.374-1.245s-.685-1-.622-1.618.249-.374.809-.934.809-.436.872-1-.187-1.183.5-1.369a1.341,1.341,0,0,0,.934-1.681c-.311-.623.187-1.432-.747-1.805a8.441,8.441,0,0,0-2.054-.56,4.663,4.663,0,0,1-1.93-1.183,1.938,1.938,0,0,1-.871-1c-.187-.5,0-.934-.623-1s-1.307-.125-1.432-.809-.374-.373-.747-1.494.311-1.494-.125-2.677-.747-.934-.062-2.117,1.868-2.3,2.117-3.113a5.341,5.341,0,0,1,.826-2.04,3.517,3.517,0,0,0-.849-.7c-.3-.074-.591.3-1.182.148s-.444-.074-.961-.813-.739-.591-.591-1.4-.369-2.513.443-2.661a8.458,8.458,0,0,1,1.774-.369c.739,0,1.4-.3,1.478-.961s.517-1.109.3-1.7-.739-.665-.222-1.4a3.414,3.414,0,0,1,2.365-1.774,12.383,12.383,0,0,0,2.882-1.035c.3-.148,1.4-.591,1.774-.074s.222,1.035.591,1.33.813.887,1.182.591,1.183-.887,1.552-1.109a.932.932,0,0,0,.443-1.33c-.369-.665-1.035-1.035-1.7-1.7a15.364,15.364,0,0,1-2.217-3.178c-.37-.813-1.183-.961-1.331-1.33s.148-.665-.37-.813-.591.739-.961.665-.961-.444-1.108.074-.739.665-.887.887-.148.961-.961,1.183-1.478.222-1.4-.369.517-.518.443-1.035.517-.739-.074-1.257-1.035-.444-1.256-.961c0,0,.222-.739-.3-.961s-1.182.222-.887-.3.887-1.256.369-1.4a3.12,3.12,0,0,0-1.33.074s.074.591-.443.665a2.733,2.733,0,0,0-1.552.444c-.369.369-.3.591-1.109.665a1.7,1.7,0,0,1-1.478-.444c-.37-.3-.665,0-1.109,0s-.739.961-.961.444-.3-1.109-.813-1.331a1.651,1.651,0,0,1-1.035-.961c-.3-.591-.444-.739-.444-1.108s.37-.665-.148-.739a2.845,2.845,0,0,1-1.33-.443c-.444-.3-.813.3-1.182,0s-.739-.3-.887-.813-1.256-.37-1.256-.37a.8.8,0,0,1-.517.592c-.443.148-.739.074-1.035.369a12.774,12.774,0,0,1-1.109.961c-.3.222-.3.148-.443.665s-.074,1.108-.887,1.478-.961,1.035-1.256,1.33-.3.222-.591,1.109-.517,1.183-.739,1.33-1.035.961-.591,1.33,1.256.591,1.256,1.035a2.259,2.259,0,0,1-.517,1.478c-.37.37-.591,1.109-.961,1.035s-.887-1.183-1.035-.887-.518.665-.443,1.035.222.961.3,1.626.222.961-.37,1.257-.3.074-.517-.739-.222-1.109-.739-1.109-.665-.37-.591-1.035a2.306,2.306,0,0,0-.148-1.552c-.3-.739-.591-.665-.665-1.33s-.148-1.626-.887-1.922-1.4-.444-1.774,0-.665.739-.887.739.074.665-.369.887-.517-.148-1.109.37-1.109.739-.887,1.478,0,.961-.3,1.109-.665,1.035-.961.961-.222-.444-.591-.813-.591,0-.517-1.182.222-.517.222-1.552-.591-1.183-.591-1.774-.222-.518-.37-1.109-.074-.591-.813-.961-.961-1.4-1.183-1.257-.591.148-.665-.443.3-1.035-.443-1.478a6.759,6.759,0,0,1-1.774-1.182c-.665-.665-1.035-1.7-1.552-1.331s-.443.665-1.33,1.035a8.647,8.647,0,0,0-1.478.887,3.914,3.914,0,0,0-1.256.887c-.222.3-.444,1.035-.813.665s.148-1.256-.517-1.33-.739.3-1.182.074-.517.148-.813-.739,0-.887-.591-1.256-1.33-.887-.813-1.109.665-.665.3-1.035-.517.148-1.256-.3-1.552-.443-1.774-1.108-.443-1.33-1.035-.887-.739.813-1.109,1.035-.37.887-.665,1.182-.222.517-.222,1.256a11.846,11.846,0,0,1,0,1.626c-.074.517.074.813-.222,1.182s-.887,1.108-.3,1.774.813.443,1.478.739.813.665.739,1.108.3,1.109-.074,1.552-.665,1.109.222,1.478a13.841,13.841,0,0,0,2.365.592c.887.222,1.4.665,1.109,1.256s-1.183,1.035-.813,1.478a1.631,1.631,0,0,0,1.478.739c.813,0,.591,0,.887.591s.739.591.887,1.478a6.631,6.631,0,0,1,.222,1.921,3.819,3.819,0,0,0,.3,1.922c.3.813,1.182,1.256.3,2s-1.183,1.478-1.774.961-.813-.222-.887.665a17.414,17.414,0,0,1-.074,2.143,3.053,3.053,0,0,1-.813,1.7c-.517.37-.813.592-1.035.074s-.517-1.109-.887-1.109a1.777,1.777,0,0,0-1.182.3c-.37.3-.591,1.108-1.183.813a11.51,11.51,0,0,0-1.256-.517c-.37-.148-.665,0-1.109.665s-.3,1.33-1.182,1.035a1.631,1.631,0,0,0-1.4.074c-.37.074-.961-.887-1.256-.591s-.887.813-.813,1.182a1.683,1.683,0,0,0,.887,1.257,1.757,1.757,0,0,1,1.035,1.256c0,.37.591,1.109.222,1.4s-1.256.813-.961,1.33.813.739.739,1.035-.222.961.37,1.183,1.33.517,1.552.3,0-.591.517.074.665.148,1.182.222.37.37.148,1.035-1.109.665-.739,1.183,1.256-.3,1.552.37-.37,1.035.591,1.256,0,.739.961.221.222-1.256.961-.517.3,1.921.887,1.921a2.778,2.778,0,0,1,2.291.517c.739.739.443,1.109.665,2.291s-.074,2.365.148,2.957.37.813-.3,1.4-1.4.074-1.7.37.813.3.665,1.33-1.035,1.848-.074,2.218,1.035-1.035,1.33-.222.517.074.961.517.517.887.148,1.256-1.626.443-.961,1.478.887,1.922.517,2-.665,1.034-.37,1.478-.591.518-.813.592-.074,1.108.148,1.33.222,1.035-.148,1.108-.37-.812-.887-.591-.961.591-1.478.074-.517-1.331-.961-1.4-1.256.3-1.4-.37-1.109-.665-1.182-.37-.074-.222-.591-.739-.3-.148-1.035-.813-1.4-1.7-1.848-1.774-.961.444-1.33.222-1.552-.148-.739.369,1.4,1.035,1.109,1.478-1.4.518-.37.961,1.478.739,1.256,1.183a1.7,1.7,0,0,0-.222,1.478c.222.591.074.961-.443.887s-.961.148-.665.665.148.961.591,1.109.591.148.739,1.108a13.994,13.994,0,0,1-.222,3.252c-.074.518-1.109.443-.517,1.257s.961.886,1.035,1.4.813,1.331.517,2.069-.813.961-1.109,1.626-.739.961-.665,1.552.222-.222.813-.148.3.3.961.591.665-1.035,1.109-.37-.222,1.552.443.665.961-1.256,1.256-1.182-.148-.591.887-.591.739,0,1.035-.887,1.7.074,1.4-.887-.665-2.069.074-2,.887-.887,1.552.074.148,1.4,1.035,1.33.369-1.256,1.109-1.256.665-.074.665-.96-.517-.444-.517-1.479-.369-1.256.665-1.256,1.626-.517,1.774,0,.3,1.035.961.961.739-.148.813-.665-.148-1.035.813-1.331.591-.961,1.183-.739a1.938,1.938,0,0,0,1.383.456,3.451,3.451,0,0,1,2.385,1.073c.358.477,1.908.119,2.146.477s1.516.984,1.009,2.069.362,2.027-.434,2.172-.8.145-1.375.8-.941.869-1.231,1.231.29,1.158.651,1.013.941-.435.941.362a2.579,2.579,0,0,1-.217,1.375c-.145.217,0,.941-.145,1.593s-.869.651-1.086,1.085-.8,1.448-.29,1.086.507-.652.869-.507a1.082,1.082,0,0,0,.941-.072c.362-.145,1.3-.145,1.013.29s-1.086,1.158-.289,1.013.724,0,1.158-.362a3.845,3.845,0,0,0,.724-.869c.289-.362.362-.869.8-.435s.362,1.158.8.58.073-1.014.651-1.014a2.944,2.944,0,0,0,1.593-.29,2.21,2.21,0,0,1,1.737-.217,2.754,2.754,0,0,0,1.584-.428,1.008,1.008,0,0,1,.008-.1A6.243,6.243,0,0,0,1037.914,2068.872Z" transform="translate(-1002.56 -1986.86)"/>
      </g>
    </g>
  </g>
</svg>
