<svg xmlns="http://www.w3.org/2000/svg" width="23.712" height="23.902" viewBox="0 0 23.712 23.902">
  <defs>
    <style>
      .cls-1 {
        fill: #fff;
      }

      .cls-2 {
        fill: none;
        stroke: #fff;
        stroke-linecap: square;
        stroke-miterlimit: 10;
      }
    </style>
  </defs>
  <g id="_" data-name="&lt;" transform="translate(0 0.5)">
    <g id="Arrow_Left_5" data-name="Arrow Left 5" transform="translate(0 14.541)">
      <path id="Stroke_1080" data-name="Stroke 1080" class="cls-1" d="M5.435,8.53,2.814,4.523a.374.374,0,0,1,0-.384L5.435.132C5.468.082,5.443,0,5.4,0H2.785a.049.049,0,0,0-.04.025L.053,4.139a.373.373,0,0,0,0,.384L2.744,8.637a.049.049,0,0,0,.04.025H5.4C5.443,8.662,5.468,8.58,5.435,8.53Z"/>
    </g>
    <path id="Line" class="cls-2" d="M.5,1.5H22.784" transform="translate(0.428 -1.5)"/>
    <path id="Line_Copy" data-name="Line Copy" class="cls-2" d="M0,0H22.284" transform="translate(23.203 0.619) rotate(90)"/>
  </g>
</svg>
