<?xml version="1.0" encoding="UTF-8"?>
<svg width="24px" height="32px" viewBox="0 0 24 32" version="1.1" xmlns="http://www.w3.org/2000/svg" xmlns:xlink="http://www.w3.org/1999/xlink">
    <title>形状</title>
    <g id="页面-1" stroke="none" stroke-width="1" fill="none" fill-rule="evenodd">
        <g id="活動备份" transform="translate(-610.000000, -1116.000000)" fill="#E8E8E8" fill-rule="nonzero">
            <path d="M610,1127.97656 C610,1124.68606 611.169702,1121.87893 613.493045,1119.52419 C615.816812,1117.16953 618.639071,1116 621.94533,1116 C625.251462,1116 628.073721,1117.1697 630.429058,1119.52419 C632.783716,1121.87902 633.953248,1124.68606 633.953248,1127.97656 C633.953248,1128.42869 633.937654,1128.89659 633.890533,1129.34898 C633.812734,1129.42691 633.828328,1129.58268 633.828328,1129.6606 L633.64116,1130.78365 C633.563107,1130.78365 633.578955,1130.89276 633.578955,1130.97082 C633.454035,1131.39168 633.329328,1131.76589 633.20462,1132.09357 C633.20462,1132.09357 633.20462,1132.10891 633.20462,1132.15603 C633.20462,1132.15603 633.189026,1132.17149 633.14216,1132.21823 C632.970671,1132.67054 632.814564,1133.07619 632.64299,1133.40336 C632.64299,1133.45027 632.627353,1133.46599 632.580615,1133.46599 C632.377683,1133.88685 632.144032,1134.27703 631.894362,1134.65111 C631.645117,1135.02545 631.379725,1135.39983 631.083316,1135.77387 C631.083316,1135.77387 631.067723,1135.78959 631.052511,1135.80544 L631.021239,1135.83599 C630.771824,1136.13252 630.475542,1136.41317 630.148116,1136.70975 C630.148116,1136.70975 630.116928,1136.72521 630.054468,1136.77195 C629.898488,1136.88094 629.882894,1136.97471 629.711023,1137.1462 C629.633224,1137.1462 629.524408,1137.19281 629.524408,1137.27112 L628.93159,1137.73847 L628.806712,1137.83199 L628.713192,1137.8947 C628.339239,1138.19094 628.073636,1138.51866 627.902147,1138.89274 C627.7307,1139.26695 627.574933,1139.53192 627.403401,1139.70366 C627.231827,1139.8749 626.92008,1139.95308 626.467521,1139.95308 L617.485047,1139.95308 C617.032913,1139.95308 616.721038,1139.87473 616.549592,1139.70366 C616.37789,1139.53179 616.206189,1139.26695 616.019106,1138.89274 C615.831981,1138.51866 615.567015,1138.19094 615.239673,1137.8947 C615.192637,1137.8947 615.161747,1137.87898 615.114711,1137.83199 L615.021191,1137.73847 L614.428628,1137.27112 L614.24146,1137.1462 L613.992173,1136.89704 C613.992173,1136.89704 613.929585,1136.83433 613.805047,1136.70975 L612.931414,1135.83599 C612.931414,1135.83599 612.916076,1135.8209 612.900482,1135.80544 L612.869167,1135.77387 C612.29207,1135.02545 611.793155,1134.2922 611.372293,1133.46599 C611.3253,1133.46599 611.309578,1133.45039 611.309578,1133.40336 C611.138132,1133.07619 610.982237,1132.67054 610.810833,1132.21823 C610.763967,1132.21823 610.748203,1132.20264 610.748203,1132.15603 C610.748203,1132.15603 610.748203,1132.14043 610.748203,1132.09357 C610.62375,1131.76584 610.49883,1131.39164 610.374123,1130.97082 C610.374123,1130.97082 610.358529,1130.9395 610.342808,1130.8773 L610.311535,1130.78378 C610.233609,1130.45635 610.171361,1130.08202 610.124453,1129.66073 C610.124453,1129.58285 610.062078,1129.42703 610.062078,1129.34915 C610.015721,1128.89659 610,1128.42874 610,1127.97656 L610,1127.97656 L610,1127.97656 L610,1127.97656 Z M617.048677,1141.94929 L627.029363,1141.94929 C627.606333,1141.94929 628.027194,1142.37015 628.027194,1142.94738 C628.027194,1143.52422 627.606333,1143.94521 627.029363,1143.94521 L617.048677,1143.94521 C616.471538,1143.94521 616.050464,1143.52422 616.050464,1142.94738 C616.050464,1142.37015 616.471538,1141.94929 617.048677,1141.94929 L617.048677,1141.94929 L617.048677,1141.94929 Z M617.485132,1145.94151 L626.530066,1145.94151 L622.849598,1147.81246 C622.272502,1148.06251 621.617734,1148.06251 621.040637,1147.81246 L617.485132,1145.94151 L617.485132,1145.94151 L617.485132,1145.94151 Z M623.036893,1121.9883 C624.237868,1121.9883 625.376127,1122.47175 626.436673,1123.45424 C627.497134,1124.43648 628.027194,1125.65305 628.027194,1127.10339 C628.027194,1127.60231 628.448268,1128.10148 629.025237,1128.10148 C629.602376,1128.10148 630.023323,1127.60231 630.023323,1127.10339 C630.023323,1124.93565 629.321646,1123.22017 627.902189,1121.9261 C626.483284,1120.6316 624.861448,1119.99205 623.036893,1119.99205 C622.459882,1119.99205 622.038808,1120.41303 622.038808,1120.99009 C622.038808,1121.56718 622.459924,1121.9883 623.036893,1121.9883 L623.036893,1121.9883 Z" id="形状"></path>
        </g>
    </g>
</svg>